<svg xmlns="http://www.w3.org/2000/svg" fill="none" viewBox="0 0 1388 292" height="292" width="1388">
<g clip-path="url(#clip0_13_21)">
<path fill="#0976B5" d="M328.161 291.97L426.661 0.439941H576.801C604.641 0.439941 625.111 2.82995 638.211 7.59995C651.311 12.3699 660.191 21.2199 664.841 34.1499C669.481 47.0799 668.671 62.8199 662.401 81.3799C656.931 97.5599 648.771 111.51 637.911 123.24C627.051 134.98 614.341 144.49 599.811 151.78C590.541 156.42 578.701 160.26 564.271 163.31C573.791 166.9 580.401 170.48 584.091 174.06C586.601 176.45 589.671 181.56 593.321 189.39C596.961 197.22 599.131 203.26 599.821 207.5L614.901 291.98H513.111L495.061 202.89C492.861 191.36 489.951 183.87 486.341 180.42C481.361 175.91 474.771 173.66 466.551 173.66H458.601L418.621 291.98H328.141L328.161 291.97ZM477.231 118.56H515.211C519.321 118.56 527.721 117.24 540.421 114.58C546.791 113.39 552.691 110.34 558.121 105.43C563.561 100.53 567.351 94.8899 569.501 88.5299C572.681 79.1199 572.141 71.8899 567.871 66.8499C563.611 61.8099 553.251 59.2899 536.821 59.2899H497.251L477.231 118.55V118.56Z"></path>
<path fill="#0976B5" d="M725.471 0.439941H815.751L717.251 291.97H626.971L725.471 0.439941Z"></path>
<path fill="#0976B5" d="M857.69 0.439941H991.52C1017.9 0.439941 1038 4.01993 1051.83 11.1799C1065.65 18.3399 1075.6 28.6199 1081.68 41.9999C1087.76 55.3899 1090.19 70.9699 1088.96 88.7299C1087.73 106.5 1083.76 125.32 1077.04 145.21C1066.51 176.37 1054.8 200.53 1041.91 217.69C1029.01 234.86 1014.31 249.25 997.8 260.85C981.28 272.45 965.15 280.17 949.4 284.02C927.85 289.32 909.06 291.97 893.02 291.97H759.19L857.69 0.439941ZM925.47 66.4599L871.65 225.75H893.72C912.54 225.75 926.64 223.66 936.01 219.49C945.37 215.31 954.07 208.02 962.09 197.61C970.11 187.2 978.07 170.34 985.95 147C996.39 116.11 998.49 94.9599 992.27 83.5599C986.05 72.1599 971.27 66.4599 947.94 66.4599H925.47Z"></path>
<path fill="#0976B5" d="M1146.89 0.439941H1388.31L1367.28 62.6799H1216.15L1200.49 109.02H1340.69L1320.6 168.48H1180.4L1160.98 225.95H1316.49L1294.18 291.97H1048.38L1146.88 0.439941H1146.89Z"></path>
<path fill="#F26222" d="M377.38 146.29H0.910156V219.19H352.75L377.38 146.29Z"></path>
<path fill="#DD1F26" d="M402.01 73.3901H0.910156V146.29H377.38L402.01 73.3901Z"></path>
<path fill="#B11F28" d="M426.64 0.48999H0.910156V73.39H402.01L426.64 0.48999Z"></path>
<path fill="#FBAC18" d="M328.16 291.97L352.75 219.19H0.910156V292.09H366.31L366.36 291.97H328.16Z"></path>
</g>
<defs>
<clipPath id="clip0_13_21">
<rect transform="translate(0.830078)" fill="white" height="292" width="1387"></rect>
</clipPath>
</defs>
</svg>
