<?xml version="1.0" encoding="utf-8"?>
<!-- Generator: Adobe Illustrator 23.0.4, SVG Export Plug-In . SVG Version: 6.00 Build 0)  -->
<svg version="1.1" id="Layer_1" xmlns="http://www.w3.org/2000/svg" xmlns:xlink="http://www.w3.org/1999/xlink" x="0px" y="0px"
	 viewBox="0 0 313.1 196.8" style="enable-background:new 0 0 313.1 196.8;" xml:space="preserve">
<style type="text/css">
	.st0{clip-path:url(#SVGID_2_);}
	.st1{fill:#FFFFFF;}
	.st2{clip-path:url(#SVGID_4_);}
</style>
<g>
	<g>
		<defs>
			<path id="SVGID_1_" d="M129.2,153c-2-2.5-5.4-7.2-7.6-10.3c-3.9-5.5-5.3-7.1-11-13.1c-5.4-5.7-7.4-7.9-9-10.3
				c-0.9-1.3-3.3-4.2-5.2-6.3c-1.9-2.1-5.1-6.2-7-9.1c-3.6-5.3-6.1-8.2-11.5-13.8c-3-3-6.4-7.2-6.9-8.5c-0.3-0.7,3.1-2.6,8.8-4.9
				c2-0.8,5.5-2.7,7.8-4.1s5.2-3,6.6-3.4c1.4-0.4,5.9-2.6,10.1-4.8c4.2-2.3,8.8-4.5,10.2-5s4.5-1.8,6.8-3c2.4-1.1,5.9-2.9,7.9-3.8
				c2-0.9,6-3.4,8.9-5.5s6.6-4.5,8.4-5.3c3.5-1.7,8.7-4.3,12.4-6.4c1.3-0.7,2.4-1.3,2.5-1.2c0.5,0.5,13.6,20.3,16.1,24.4
				c1.8,2.8,3.7,5.7,4.4,6.4c1,1.1,13.4,18.9,27.4,39.7c2,3,5.5,7.2,7.6,9.4c3.5,3.5,13.3,17.3,12.8,17.9c-0.1,0.1-1.7,0.7-3.6,1.2
				s-5.9,1.8-8.9,2.8c-3,1-7.4,2.2-9.8,2.8s-7.6,1.9-11.6,2.9c-16.3,4.1-25.8,6.5-31.5,7.8c-3.3,0.8-8,2.1-10.3,3
				c-2.3,0.9-6.8,2.2-10,2.9s-7,1.5-8.4,1.7l-2.6,0.4L129.2,153z"/>
		</defs>
		<clipPath id="SVGID_2_">
			<use xlink:href="#SVGID_1_"  style="overflow:visible;"/>
		</clipPath>
		<g class="st0">
			<path class="st1" d="M132,158.3c1.2-3.5,2.9-7.8,3.7-9.7s2.2-6,3-9.2s1.8-6.2,2-6.6c0.8-1.1,4-10.4,4.7-13.3
				c0.3-1.4,1.8-5.8,3.2-9.8s3.2-9.4,4-12c2.6-8.6,3.7-11.8,4.9-14.2c0.6-1.3,1.8-5,2.5-8.3c0.7-3.3,2.2-9,3.3-12.8
				c1.1-3.7,2.8-11,3.9-16.1c1.4-6.7,2.8-12.6,3.9-16.7c-0.4-0.4-0.7-0.8-1.1-1.2c-0.1,0.3-0.2,0.6-0.3,1c-0.5,1.6-1.2,4.2-1.5,5.7
				c-1.9,9.6-6.7,28.4-8.2,32.3c-0.5,1.2-1.4,4.6-2.1,7.6c-0.7,3-1.7,6.5-2.4,7.8c-1.3,2.7-3.9,10.1-4.9,14.3
				c-0.4,1.5-1.9,6-3.2,9.8c-1.4,3.9-3.1,9.2-3.8,11.9s-2.1,7.1-3,9.7s-2.3,7-3,9.8s-2.2,7.5-3.4,10.5c-1.2,2.9-3,7.8-4,10.8
				c-0.9,3-2.2,6.1-2.7,7.1c-0.6,1-0.8,1.7-0.5,1.8C127.9,168.7,129.6,165.2,132,158.3L132,158.3z"/>
			<path class="st1" d="M193.9,131.3c-1.3-0.7-3.5-2.1-4.9-3.2c-1.4-1.1-4.9-3.5-7.8-5.5s-7.2-5.1-9.5-7s-5.9-4.5-7.8-5.7
				c-1.9-1.2-6.4-4.6-9.9-7.4c-3.6-2.8-7.5-5.7-8.7-6.4s-2.2-1.4-2.3-1.5c-0.1-0.3-8.8-6.7-17.5-13c-3.1-2.2-7.4-5.7-9.5-7.7
				s-6.1-5-8.9-6.8s-7.3-4.9-10.1-7.1c-2-1.6-4.4-3.4-6-4.7c-0.8,0.1-1.7,0.1-2.5,0.1c0.2,0.2,0.4,0.3,0.7,0.5
				c1.7,1.3,5.4,4.2,8.2,6.5c2.8,2.3,6,4.7,7.1,5.3c3.9,2.2,7,4.7,10.4,8.2c3.9,4,23.6,18.9,30.2,22.8c1.4,0.9,3.9,2.6,5.5,3.8
				c2.4,1.9,12.7,9.2,26.5,18.8c1.7,1.2,5.6,4.1,8.6,6.5s7.5,5.4,9.9,6.8c2.4,1.3,6.8,4.2,9.8,6.4c1,0.7,1.8,1.3,2.4,1.7
				c-0.2-0.8-0.3-1.7-0.5-2.5C203.8,137.5,197.3,133.1,193.9,131.3L193.9,131.3z"/>
			<path class="st1" d="M63.7,95.6c0.8,0.2,5,0.4,9.4,0.3c15.8,0,17.6,0,22.4,0.4c2.7,0.2,6.7,0.3,8.8,0.1s7.2,0.2,11.4,0.7
				c8.3,1.1,11,1.1,17.7,0.4c2.5-0.3,7.1-0.2,10.1,0.2c3.1,0.4,7.4,0.7,9.5,0.7s5.6,0.3,7.7,0.7s4.6,0.8,5.6,1s3.9,0.6,6.2,1
				s6,1,8.2,1.3s6.2,0.6,9.1,0.6c2.8,0,6,0.1,7,0.2c6.8,0.9,19.5,1.5,23.1,1c4.8-0.6,11.3-0.7,16.5-0.2c1.2,0.1,2.7,0.2,4,0.3
				c0.7-0.5,1.5-1,2.3-1.5c-0.2,0-0.4,0-0.6,0c-2.7-0.2-7.2-0.5-10.1-0.7c-2.9-0.2-7.7-0.2-10.8-0.1c-4.9,0.3-18.5-0.2-23.7-0.8
				c-1.1-0.1-4.6-0.1-7.8,0.1c-5.7,0.3-11-0.3-27.1-3.3c-3-0.6-7.1-1-9.3-1.1c-2.1,0-6.2-0.3-9.1-0.7s-8.6-0.5-12.5-0.5
				c-4.1,0.1-10.2-0.3-14.2-0.9c-3.9-0.6-9.4-1-12.2-0.9c-2.8,0.1-8.5,0.1-12.6,0c-4.1-0.1-10.1-0.1-13.2,0.1
				c-6.2,0.4-13.2,0.4-16.4,0c-1.1-0.1-3-0.2-4.3-0.1c-1.2,0.1-3.1,0-4.4-0.1l1,1c0.6,0,1.4,0,2.3,0C60.2,95.2,62.9,95.4,63.7,95.6
				L63.7,95.6z"/>
			<path class="st1" d="M201.5,32.9c-8,8.5-19.8,22.1-22.5,26c-3.4,4.9-7.3,9.6-13.9,16.9c-3.6,4-8,9-9.7,11.1
				c-3.6,4.4-10.5,13-15,18.6c-1.7,2.1-5.5,6.7-8.4,10.3c-9.9,12-14.4,17.7-16,20.5c-0.9,1.5-3.6,5.1-6.1,7.9
				c-2.5,2.8-6.6,7.8-9.2,11.3c-2.6,3.4-5.8,7.5-7.2,9l-0.7,0.8c0.2,0.5,0.4,1,0.6,1.5c1-1.3,2.8-3.6,4.7-5.8c2.6-3,6.1-7.3,7.8-9.6
				c1.7-2.3,4.5-5.6,6.3-7.4s4.2-4.7,5.4-6.5c2.3-3.5,5.6-7.4,19-23.1c4.7-5.5,8.6-10.2,8.7-10.5s1.8-2.6,3.9-5.1s4.9-5.9,6.3-7.7
				s5.3-6.3,8.6-10.1c6.8-7.7,11.2-13.2,18-22.6c4-5.6,9.5-12.2,13.3-16c3-3,7.5-8.2,9.5-10.9C203.8,32,202.6,32.4,201.5,32.9
				L201.5,32.9z"/>
			<path class="st1" d="M201.7,66.2c-3.2,1.7-7.4,3.8-9.3,4.6s-5.7,2.9-8.5,4.7s-5.5,3.4-6,3.5c-1.4,0.3-10,4.9-12.5,6.6
				c-1.2,0.8-5.2,3.1-9,5s-8.8,4.7-11.1,6c-7.7,4.5-10.8,6.2-13.2,7.1c-1.3,0.5-4.7,2.5-7.5,4.4c-2.8,1.9-7.8,5.1-11.1,7.1
				c-3.3,2-9.5,6.1-13.8,9.2c-5.6,4-10.6,7.3-14.2,9.6c0,0.5,0,1.1,0,1.6c0.3-0.1,0.6-0.3,0.9-0.5c1.5-0.8,3.8-2.2,5-3.1
				c8-5.8,24.2-16.3,28-18.1c1.2-0.6,4.1-2.4,6.7-4.2s5.6-3.6,7-4.1c2.8-1.1,9.7-4.8,13.3-7.2c1.3-0.9,5.4-3.1,9-5
				c3.6-1.9,8.5-4.7,10.9-6.2c2.4-1.5,6.3-3.8,8.8-5s6.5-3.6,8.9-5.2s6.7-4,9.6-5.4c2.9-1.3,7.5-3.7,10.2-5.2s5.8-3,6.8-3.3
				c1.1-0.3,1.8-0.7,1.6-1C211.8,61.4,208.1,62.8,201.7,66.2L201.7,66.2z"/>
			<path class="st1" d="M136.8,43.9c0.5,1.4,1.1,3.9,1.4,5.7s1.2,5.9,2,9.3s1.8,8.6,2.3,11.6c0.5,3,1.3,7.3,1.8,9.5
				s1.5,7.7,2.3,12.2c0.7,4.5,1.6,9.2,2,10.6c0.4,1.3,0.7,2.5,0.7,2.7c-0.1,0.3,1.9,10.9,4,21.4c0.8,3.7,1.5,9.2,1.8,12.1
				c0.2,2.9,1.1,7.9,1.9,11c0.8,3.1,2,8.5,2.5,12c0.4,2.5,0.9,5.5,1.2,7.6c0.6,0.5,1.3,1.1,1.9,1.6c0-0.3-0.1-0.5-0.1-0.8
				c-0.4-2.1-1.1-6.7-1.5-10.3c-0.5-3.6-1.2-7.5-1.6-8.7c-1.3-4.3-2-8.2-2-13c-0.1-5.6-4.4-29.9-6.6-37.3c-0.5-1.6-1.1-4.5-1.4-6.5
				c-0.5-3-3.1-15.4-6.7-31.7c-0.5-2-1.3-6.8-1.9-10.6c-0.6-3.8-1.8-9.1-2.6-11.7s-2.1-7.7-2.9-11.4c-0.2-1.2-0.4-2.1-0.6-2.9
				c-0.5,0.7-0.9,1.4-1.4,2.2C133.7,32.6,135.5,40.3,136.8,43.9L136.8,43.9z"/>
			<path class="st1" d="M208.4,159c-0.5-0.7-3.5-3.7-6.7-6.6c-11.6-10.7-12.9-12-16.2-15.5c-1.9-2-4.7-4.8-6.4-6.1
				c-1.6-1.4-5.2-5.1-7.8-8.3c-5.4-6.4-7.3-8.3-12.7-12.3c-2-1.5-5.3-4.7-7.3-7.1c-2-2.4-4.9-5.5-6.5-7s-3.9-4.1-5.2-5.7
				s-2.8-3.7-3.5-4.6s-2.4-3.1-3.9-4.9s-3.8-4.8-5.1-6.5s-4.1-4.7-6.2-6.6c-2.1-1.9-4.4-4.1-5-4.9c-4.4-5.3-13.3-14.4-16.2-16.4
				c-3.9-2.8-8.8-7.2-12.2-11c-0.8-0.9-1.9-2-2.8-2.9c-0.9-0.1-1.8-0.3-2.7-0.4c0.1,0.1,0.3,0.3,0.4,0.4c1.9,1.9,5,5.2,6.9,7.3
				c1.9,2.1,5.5,5.4,7.9,7.4c3.8,3.1,13.4,12.7,16.9,16.7c0.7,0.8,3.3,3.2,5.8,5.2c4.4,3.7,7.8,7.7,17.6,20.9
				c1.8,2.4,4.5,5.6,6.1,7.1s4.3,4.5,6.2,6.7s5.9,6.2,8.9,8.9c3.1,2.7,7.3,7.2,9.8,10.4c2.4,3.1,6.2,7.1,8.4,8.9
				c2.2,1.8,6.3,5.7,9.2,8.6s7.3,6.9,9.8,8.9c4.8,3.9,10,8.6,12,11.1c0.7,0.9,2.1,2.2,3.1,3c0.9,0.8,2.3,2.1,3.2,3.1
				c0-0.5,0-1,0-1.5c-0.5-0.4-1-0.9-1.7-1.6C210.7,161.6,208.8,159.7,208.4,159L208.4,159z"/>
			<path class="st1" d="M65,111.5c11.6-0.8,29.6-2.8,34.2-3.8c5.8-1.3,11.8-2.1,21.6-3c5.4-0.5,12-1.2,14.7-1.6
				c5.6-0.8,16.6-2.4,23.7-3.5c2.7-0.4,8.6-1.2,13.1-1.8c15.4-2,22.6-3.2,25.7-4.2c1.7-0.5,6.1-1.3,9.8-1.6c3.7-0.4,10.2-1.3,14.4-2
				s9.4-1.5,11.4-1.8l1-0.1c0.2-0.5,0.4-1,0.6-1.5c-1.6,0.3-4.5,0.7-7.4,1.1c-4,0.4-9.5,1.2-12.2,1.7c-2.8,0.5-7.1,1-9.6,1.1
				s-6.3,0.6-8.4,1.1c-4,1-9.1,1.7-29.6,4c-7.1,0.8-13.2,1.6-13.5,1.8s-3.1,0.7-6.3,1.1s-7.6,1-9.9,1.4s-8.2,1.1-13.1,1.6
				c-10.2,1-17.1,2.1-28.6,4.4c-6.7,1.4-15.3,2.5-20.6,2.7c-4.3,0.2-11.1,1-14.4,1.6C62.7,110.6,63.8,111.1,65,111.5L65,111.5z"/>
			<path class="st1" d="M166.8,158.1c-0.9-3.6-1.8-8.1-2.1-10.1s-1.4-6.2-2.4-9.4c-1-3.1-1.9-6.2-1.9-6.7c0-1.4-2.2-10.9-3.2-13.8
				c-0.5-1.4-1.7-5.9-2.6-10s-2.3-9.6-3.1-12.2c-2.5-8.6-3.3-12-3.6-14.6c-0.2-1.4-1.2-5.2-2.4-8.3c-1.2-3.2-3-8.8-4.1-12.5
				c-1.1-3.7-3.6-10.8-5.4-15.6c-2.4-6.4-4.5-12.1-5.7-16.1c-0.5-0.1-1.1-0.3-1.6-0.4c0.1,0.3,0.2,0.6,0.3,1
				c0.4,1.7,1.2,4.2,1.8,5.6c3.6,9.2,9.7,27.5,10.5,31.6c0.2,1.3,1.3,4.6,2.4,7.5s2,6.4,2.2,7.8c0.4,2.9,2.2,10.6,3.6,14.7
				c0.5,1.5,1.7,6,2.6,10s2.4,9.4,3.3,12.1c0.9,2.7,2.1,7.1,2.7,9.8s1.8,7.2,2.8,9.9c1,2.7,2.2,7.5,2.8,10.7
				c0.6,3.1,1.7,8.2,2.5,11.2s1.5,6.3,1.5,7.4c0,1.1,0.3,1.9,0.6,1.8C169,169,168.5,165.2,166.8,158.1L166.8,158.1z"/>
			<path class="st1" d="M75.3,141.7c0.8-0.3,4.4-2.4,8.1-4.8c13.3-8.5,14.8-9.5,19.1-11.8c2.4-1.3,5.8-3.4,7.5-4.6
				c1.7-1.2,6.2-3.7,9.9-5.5c7.6-3.6,9.9-5,15.1-9.2c2-1.6,5.9-4,8.7-5.3s6.6-3.4,8.4-4.6c1.8-1.2,4.9-2.8,6.8-3.6
				c1.9-0.8,4.3-1.8,5.3-2.2c1-0.4,3.6-1.5,5.8-2.5c2.1-1,5.6-2.4,7.6-3.3c2-0.9,5.6-2.8,8-4.4s5.1-3.2,6-3.6
				c6.2-2.9,17.2-9.3,20-11.6c3.7-3.1,9.2-6.7,13.7-9.1c1.1-0.6,2.4-1.3,3.5-2c0.3-0.8,0.7-1.7,1.1-2.5c-0.2,0.1-0.4,0.2-0.5,0.3
				c-2.3,1.3-6.3,3.5-8.8,4.9c-2.5,1.4-6.6,4-9.1,5.8c-4,2.9-15.6,9.9-20.4,12.1c-1,0.5-3.9,2.4-6.5,4.3c-4.6,3.4-9.4,5.7-24.6,11.8
				c-2.8,1.1-6.6,3-8.4,4.1s-5.4,3.1-8.1,4.4s-7.5,4.2-10.8,6.4c-3.4,2.3-8.8,5.3-12.5,6.9c-3.6,1.6-8.4,4.2-10.7,5.9
				s-7.1,4.7-10.6,6.8s-8.5,5.4-11,7.2c-5,3.7-10.9,7.5-13.8,8.9c-1,0.5-2.7,1.5-3.7,2.2c-1,0.7-2.6,1.7-3.8,2.3
				c0.5,0.1,0.9,0.2,1.4,0.4c0.5-0.3,1.1-0.7,2-1.2C72.1,143.3,74.5,142,75.3,141.7L75.3,141.7z"/>
			<path class="st1" d="M156.8,14.5c-2.1,11.5-4.7,29.3-4.9,34.1c-0.2,6-0.9,12-2.5,21.7c-0.9,5.3-1.9,11.9-2.1,14.6
				c-0.6,5.6-1.8,16.6-2.5,23.8c-0.3,2.7-1,8.6-1.5,13.2c-1.9,15.5-2.5,22.7-2.4,25.9c0.1,1.8-0.3,6.2-0.9,9.9
				c-0.6,3.7-1.3,10.2-1.6,14.5s-0.9,9.5-1.1,11.5l-0.1,1c0.4,0.3,0.9,0.6,1.3,0.9c0.1-1.6,0.4-4.5,0.8-7.4
				c0.6-3.9,1.2-9.5,1.4-12.3s0.8-7.1,1.3-9.6c0.5-2.5,1-6.2,1-8.4c0.1-4.1,0.7-9.3,3.5-29.7c1-7.1,1.7-13.2,1.6-13.5
				c-0.1-0.3,0.1-3.2,0.5-6.4s0.9-7.6,1.1-9.9s1-8.2,1.8-13.1c1.6-10.1,2.3-17.1,2.9-28.7c0.4-6.8,1.4-15.4,2.5-20.6
				c0.9-4.2,1.8-11,2.1-14.3C158.2,12.5,157.5,13.5,156.8,14.5L156.8,14.5z"/>
			<path class="st1" d="M175.5,42.7c-1.8,3.2-4.2,7.2-5.4,8.9c-1.1,1.7-3.2,5.5-4.6,8.5c-1.4,3-2.8,5.8-3.2,6.2c-1,1-5.8,9.5-7,12.3
				c-0.6,1.3-2.8,5.4-4.9,9.1s-4.8,8.7-6,11.1c-4,8-5.7,11-7.3,13.1c-0.9,1.2-2.6,4.6-3.9,7.7s-3.8,8.5-5.5,12
				c-1.7,3.5-4.7,10.3-6.6,15.2c-2.6,6.4-4.9,11.9-6.8,15.7c0.3,0.5,0.6,0.9,0.9,1.4c0.1-0.3,0.3-0.6,0.5-0.9c0.8-1.5,2-3.9,2.5-5.3
				c3.6-9.2,11.6-26.8,13.7-30.4c0.7-1.1,2.2-4.3,3.4-7.1s2.8-6.1,3.7-7.2c1.7-2.4,5.6-9.3,7.4-13.2c0.6-1.5,2.9-5.5,4.9-9.1
				c2-3.5,4.7-8.5,5.8-11.1s3.3-6.6,4.7-9c1.4-2.4,3.5-6.5,4.7-9.1c1.1-2.7,3.5-7,5.2-9.7s4.3-7.1,5.8-9.9c1.5-2.8,3.2-5.7,3.9-6.5
				c0.8-0.9,1.1-1.6,0.8-1.7C181.3,33.2,179,36.4,175.5,42.7L175.5,42.7z"/>
			<path class="st1" d="M109.5,58.4c1.2,0.9,3.1,2.7,4.3,4c1.2,1.3,4.2,4.3,6.7,6.8s6.2,6.3,8.2,8.5s5,5.4,6.6,7
				c1.6,1.6,5.5,5.6,8.5,9c3,3.4,6.4,6.9,7.4,7.8s2,1.7,2,1.9c0.1,0.3,7.5,8.1,14.9,15.8c2.6,2.7,6.3,6.9,8,9.2
				c1.8,2.3,5.2,6,7.5,8.2s6.3,6.1,8.6,8.8c1.7,1.9,3.7,4.1,5.1,5.7c0.8,0.1,1.7,0.2,2.5,0.3c-0.2-0.2-0.4-0.4-0.6-0.6
				c-1.4-1.6-4.5-5.1-6.9-7.9s-5.1-5.7-6-6.5c-3.4-2.9-6.1-5.8-8.8-9.9c-3.1-4.7-19.9-22.7-25.8-27.8c-1.3-1.1-3.4-3.2-4.7-4.7
				c-2-2.3-10.9-11.3-22.8-23.1c-1.5-1.5-4.8-5-7.4-7.9c-2.6-2.9-6.4-6.6-8.5-8.4s-6-5.3-8.6-8c-0.8-0.9-1.5-1.6-2.1-2.1
				c0,0.9,0,1.7,0,2.6C100.9,50.6,106.5,56.1,109.5,58.4L109.5,58.4z"/>
			<path class="st1" d="M231.5,116.5c-0.8-0.3-4.9-1.2-9.2-2c-15.6-2.8-17.3-3.1-22-4.3c-2.6-0.7-6.5-1.4-8.7-1.7s-7.1-1.5-11-2.7
				c-8-2.5-10.7-3-17.3-3.5c-2.5-0.2-7-1.1-10-2s-7.1-2-9.3-2.4s-5.5-1.3-7.4-2c-1.9-0.7-4.4-1.6-5.4-2s-3.7-1.3-5.9-2.1
				c-2.2-0.8-5.7-2-7.8-2.7s-6.1-1.7-8.9-2.2s-5.9-1.1-6.9-1.5c-6.5-2.1-19-4.9-22.5-5.1C74.4,80.1,67.9,79,63,77.7
				c-1.2-0.3-2.6-0.7-3.9-1c-0.8,0.4-1.7,0.8-2.5,1.1c0.2,0,0.4,0.1,0.6,0.1c2.6,0.6,7,1.7,9.8,2.4c2.8,0.7,7.5,1.6,10.6,2
				c4.9,0.6,18.2,3.4,23.2,5c1,0.3,4.5,0.9,7.7,1.3c5.7,0.7,10.8,2.2,26.1,8c2.8,1.1,6.9,2.3,8.9,2.7s6.1,1.4,8.9,2.3
				s8.3,2,12.2,2.6c4.1,0.6,10,2.1,13.9,3.4c3.7,1.3,9,2.6,11.8,3s8.4,1.4,12.4,2.2c4,0.9,9.9,1.8,13,2.2c6.2,0.7,13,1.9,16.1,2.9
				c1.1,0.3,3,0.7,4.2,0.9c1.2,0.1,3.1,0.5,4.3,0.9c-0.3-0.4-0.5-0.8-0.8-1.2c-0.6-0.1-1.4-0.2-2.3-0.4
				C234.9,117.5,232.3,116.8,231.5,116.5L231.5,116.5z"/>
			<path class="st1" d="M85,154.2c9.4-7,23.4-18.3,26.7-21.7c4.2-4.2,8.8-8.2,16.6-14.2c4.3-3.3,9.5-7.5,11.5-9.3
				c4.3-3.7,12.6-11,18-15.7c2-1.8,6.6-5.7,10-8.6c11.9-10.1,17.3-14.9,19.4-17.4c1.1-1.4,4.5-4.4,7.4-6.7c2.9-2.3,7.9-6.6,11-9.5
				c3.2-2.9,7-6.4,8.6-7.6l0.8-0.7c-0.1-0.5-0.2-1.1-0.3-1.6c-1.2,1.1-3.4,3-5.6,4.9c-3.1,2.5-7.3,6.1-9.4,8.1s-5.4,4.7-7.5,6.2
				c-2.1,1.4-5,3.9-6.5,5.4c-2.9,3-6.8,6.3-22.8,19.4c-5.6,4.6-10.2,8.5-10.4,8.9c-0.1,0.3-2.3,2.2-4.7,4.3s-5.9,5-7.6,6.5
				s-6.3,5.3-10.2,8.4c-8.1,6.4-13.3,11-21.6,19.1c-4.9,4.8-11.5,10.4-15.9,13.4c-3.5,2.5-8.8,6.8-11.2,9.1
				C82.6,154.8,83.8,154.5,85,154.2z"/>
		</g>
	</g>
	<g>
		<defs>
			<path id="SVGID_3_" d="M129.2,153c-2-2.5-5.4-7.2-7.6-10.3c-3.9-5.5-5.3-7.1-11-13.1c-5.4-5.7-7.4-7.9-9-10.3
				c-0.9-1.3-3.3-4.2-5.2-6.3c-1.9-2.1-5.1-6.2-7-9.1c-3.6-5.3-6.1-8.2-11.5-13.8c-3-3-6.4-7.2-6.9-8.5c-0.3-0.7,3.1-2.6,8.8-4.9
				c2-0.8,5.5-2.7,7.8-4.1s5.2-3,6.6-3.4c1.4-0.4,5.9-2.6,10.1-4.8c4.2-2.3,8.8-4.5,10.2-5s4.5-1.8,6.8-3c2.4-1.1,5.9-2.9,7.9-3.8
				c2-0.9,6-3.4,8.9-5.5s6.6-4.5,8.4-5.3c3.5-1.7,8.7-4.3,12.4-6.4c1.3-0.7,2.4-1.3,2.5-1.2c0.5,0.5,13.6,20.3,16.1,24.4
				c1.8,2.8,3.7,5.7,4.4,6.4c1,1.1,13.4,18.9,27.4,39.7c2,3,5.5,7.2,7.6,9.4c3.5,3.5,13.3,17.3,12.8,17.9c-0.1,0.1-1.7,0.7-3.6,1.2
				s-5.9,1.8-8.9,2.8c-3,1-7.4,2.2-9.8,2.8s-7.6,1.9-11.6,2.9c-16.3,4.1-25.8,6.5-31.5,7.8c-3.3,0.8-8,2.1-10.3,3
				c-2.3,0.9-6.8,2.2-10,2.9s-7,1.5-8.4,1.7l-2.6,0.4L129.2,153z"/>
		</defs>
		<clipPath id="SVGID_4_">
			<use xlink:href="#SVGID_3_"  style="overflow:visible;"/>
		</clipPath>
		<g class="st2">
			<path class="st1" d="M156.8,160.1c-0.2-3.7-0.4-8.3-0.4-10.3c0-2-0.3-6.4-0.8-9.6c-0.5-3.3-0.8-6.4-0.7-6.9
				c0.3-1.4-0.4-11.1-0.9-14.1c-0.3-1.4-0.7-6.1-0.9-10.3c-0.2-4.2-0.7-9.9-1-12.6c-1-8.9-1.2-12.3-1.1-15c0.1-1.4-0.4-5.3-1-8.6
				s-1.5-9.2-2-13s-1.7-11.2-2.7-16.3c-1.3-6.7-2.4-12.6-2.9-16.9c-0.5-0.2-1-0.5-1.5-0.7c0,0.3,0.1,0.6,0.1,1
				c0.1,1.7,0.5,4.3,0.8,5.8c2,9.6,5,28.8,5.1,32.9c0,1.3,0.5,4.8,1.1,7.8c0.6,3,1,6.6,0.9,8c-0.1,3,0.4,10.8,1.1,15.1
				c0.2,1.6,0.6,6.2,0.9,10.3s0.8,9.7,1.2,12.5c0.4,2.8,0.9,7.3,1,10.1s0.6,7.4,1.1,10.2s0.9,7.8,1,11c0,3.2,0.3,8.3,0.6,11.4
				s0.4,6.5,0.2,7.6c-0.2,1.1,0,1.9,0.3,1.9C157.1,171.2,157.3,167.4,156.8,160.1L156.8,160.1z"/>
			<path class="st1" d="M203.1,110.9c-1.5-0.1-4.1-0.6-5.8-1c-1.7-0.4-5.9-1.3-9.3-2s-8.6-1.9-11.5-2.7s-7.1-1.8-9.4-2.2
				c-2.2-0.4-7.6-1.7-12-2.9s-9.1-2.3-10.5-2.4s-2.6-0.4-2.7-0.5c-0.2-0.2-10.7-2.7-21.2-5.1c-3.7-0.8-9-2.3-11.8-3.3
				c-2.8-1-7.6-2.2-10.8-2.8s-8.6-1.7-12-2.6c-2.5-0.7-5.3-1.4-7.4-2c-0.8,0.4-1.5,0.8-2.3,1.1c0.3,0.1,0.5,0.1,0.8,0.2
				c2.1,0.5,6.6,1.8,10.1,2.8s7.3,2,8.6,2.1c4.4,0.5,8.2,1.5,12.7,3.5c5.2,2.2,29.1,8.1,36.7,9.1c1.6,0.2,4.6,0.8,6.5,1.4
				c3,0.8,15.3,3.5,31.7,6.9c2,0.4,6.8,1.6,10.5,2.6c3.7,1,9,2.1,11.7,2.4s7.9,1.2,11.5,2c1.2,0.3,2.1,0.5,2.9,0.6
				c-0.5-0.7-1-1.4-1.4-2.1C214.7,112.7,206.9,111.2,203.1,110.9L203.1,110.9z"/>
			<path class="st1" d="M69.4,129.2c0.8-0.1,4.8-1.7,8.8-3.4c14.5-6.2,16.2-6.9,20.8-8.5c2.6-0.9,6.3-2.4,8.2-3.3s6.8-2.6,10.7-3.8
				c8.1-2.3,10.6-3.3,16.4-6.5c2.2-1.2,6.5-2.9,9.4-3.8s7-2.2,9.1-3.1c2-0.9,5.3-1.9,7.3-2.4s4.5-1,5.6-1.3s3.8-0.9,6.1-1.5
				c2.3-0.6,5.9-1.5,8-2s6-1.9,8.6-3c2.6-1.1,5.5-2.3,6.5-2.5c6.6-1.8,18.5-6.3,21.6-8.1c4.2-2.4,10.1-5.1,15.1-6.7
				c1.1-0.4,2.6-0.9,3.8-1.4c0.5-0.8,1-1.5,1.5-2.3c-0.2,0.1-0.4,0.1-0.6,0.2c-2.5,0.9-6.8,2.4-9.5,3.3c-2.7,0.9-7.2,2.8-9.9,4.2
				c-4.4,2.2-17.1,7.1-22.1,8.6c-1,0.3-4.2,1.7-7.1,3.1c-5.1,2.5-10.2,4-26.2,7.6c-3,0.7-7,1.9-8.9,2.6s-5.9,2.1-8.7,3
				c-2.8,0.8-8.1,2.9-11.7,4.5c-3.8,1.7-9.5,3.7-13.5,4.7c-3.8,1-9,2.8-11.5,4s-7.8,3.5-11.6,4.9s-9.3,3.9-12.1,5.3
				c-5.5,2.8-12,5.5-15.1,6.4c-1.1,0.3-2.9,1-4,1.6c-1.1,0.5-2.9,1.2-4.1,1.6c0.4,0.2,0.9,0.4,1.3,0.6c0.6-0.2,1.3-0.5,2.2-0.9
				C66,130.2,68.6,129.3,69.4,129.2L69.4,129.2z"/>
			<path class="st1" d="M171.5,17.5c-4,11-9.5,28.1-10.5,32.8c-1.2,5.8-2.9,11.7-6.1,20.9c-1.8,5.1-3.8,11.4-4.6,14
				c-1.6,5.5-4.5,16.1-6.5,23c-0.7,2.6-2.4,8.4-3.7,12.7c-4.4,14.9-6.3,21.9-6.7,25.1c-0.2,1.8-1.4,6.1-2.5,9.6s-3,9.8-4,14
				c-1,4.2-2.4,9.2-3,11.1l-0.3,1c0.4,0.4,0.8,0.8,1.1,1.1c0.4-1.6,1.1-4.4,2-7.2c1.2-3.8,2.8-9.1,3.4-11.9c0.6-2.7,2-6.9,2.9-9.2
				s2-6,2.4-8.1c0.8-4.1,2.2-9,8.4-28.7c2.2-6.9,3.9-12.8,3.8-13.1s0.7-3.1,1.6-6.2c0.9-3.1,2.2-7.4,2.8-9.6s2.4-7.9,3.9-12.6
				c3.3-9.7,5.1-16.5,7.6-27.9c1.5-6.7,4-15,6-19.9c1.6-4,3.6-10.5,4.4-13.8C173.2,15.7,172.3,16.5,171.5,17.5L171.5,17.5z"/>
			<path class="st1" d="M184.7,48c-2.3,2.9-5.4,6.4-6.8,7.8c-1.4,1.4-4.1,4.9-6,7.6c-1.9,2.8-3.7,5.2-4.1,5.5
				c-1.1,0.8-7.3,8.4-8.9,11c-0.8,1.2-3.6,4.9-6.3,8.2c-2.7,3.3-6.2,7.7-7.8,9.9c-5.3,7.2-7.5,9.9-9.4,11.7c-1,1-3.3,4.1-5.1,7
				s-5.1,7.8-7.4,10.9c-2.3,3.2-6.4,9.4-9.1,13.8c-3.6,5.9-6.9,10.9-9.3,14.4c0.2,0.5,0.4,1,0.6,1.5c0.2-0.2,0.4-0.5,0.6-0.8
				c1.1-1.3,2.6-3.5,3.4-4.8c5.1-8.4,15.9-24.5,18.6-27.6c0.9-1,2.9-3.9,4.5-6.4c1.6-2.6,3.8-5.5,4.8-6.5c2.1-2.1,7-8.2,9.5-11.8
				c0.9-1.3,3.8-5,6.4-8.1c2.6-3.1,6-7.6,7.6-10s4.3-6,6.1-8.1c1.8-2.1,4.6-5.8,6.1-8.2c1.6-2.4,4.6-6.4,6.8-8.7
				c2.1-2.4,5.5-6.3,7.3-8.8c1.9-2.5,4.1-5.1,5-5.7c0.9-0.7,1.3-1.4,1-1.6C192.1,39.6,189.3,42.3,184.7,48L184.7,48z"/>
			<path class="st1" d="M116.3,52.9c1,1.1,2.6,3.2,3.6,4.7c1,1.5,3.4,5,5.5,7.8c2,2.8,5,7.2,6.6,9.8s4,6.2,5.4,8s4.4,6.5,6.9,10.3
				c2.4,3.9,5.1,7.9,6,8.9c0.9,1.1,1.7,2,1.7,2.2c0,0.3,6,9.3,12.1,18.1c2.1,3.1,5,7.8,6.4,10.4c1.4,2.6,4.1,6.8,6.1,9.4
				s5.2,7.1,7.1,10.1c1.4,2.2,3,4.7,4.1,6.5c0.8,0.2,1.6,0.5,2.4,0.8c-0.1-0.2-0.3-0.5-0.4-0.7c-1.2-1.8-3.6-5.8-5.5-8.9
				s-4-6.4-4.9-7.4c-2.9-3.4-5-6.7-7-11.2c-2.3-5.1-15.8-25.7-20.8-31.7c-1.1-1.3-2.8-3.7-3.9-5.5c-1.6-2.6-8.9-13-18.6-26.6
				c-1.2-1.7-3.9-5.7-5.9-9s-5.2-7.6-7-9.7c-1.8-2.1-5-6.3-7.1-9.3c-0.7-1-1.2-1.8-1.7-2.5c-0.1,0.9-0.3,1.7-0.4,2.5
				C109,43.7,113.7,50.1,116.3,52.9L116.3,52.9z"/>
			<path class="st1" d="M227.3,130.7c-0.7-0.5-4.6-2-8.8-3.5c-14.9-5.3-16.5-5.9-21-7.9c-2.5-1.1-6.2-2.5-8.3-3.1s-6.8-2.6-10.4-4.5
				c-7.5-3.8-10-4.8-16.5-6.4c-2.5-0.6-6.7-2.2-9.5-3.6s-6.7-3.1-8.8-3.9c-2-0.8-5.2-2.2-7-3.2c-1.8-1-4-2.3-5-2.8
				c-0.9-0.5-3.4-1.9-5.5-3s-5.3-2.9-7.2-4c-1.9-1.1-5.7-2.7-8.4-3.7c-2.7-0.9-5.6-2.1-6.5-2.6c-6.1-3.1-17.9-8-21.4-8.8
				c-4.7-1.1-10.9-3.2-15.6-5.3c-1.1-0.5-2.5-1.1-3.7-1.6c-0.9,0.2-1.8,0.5-2.6,0.7c0.2,0.1,0.4,0.2,0.6,0.2c2.5,1,6.6,2.9,9.2,4
				s7.2,2.8,10.1,3.7c4.8,1.4,17.4,6.4,22.1,8.8c0.9,0.5,4.3,1.6,7.4,2.5c5.5,1.6,10.2,4,24.4,12.3c2.6,1.5,6.4,3.4,8.4,4.1
				c2,0.7,5.7,2.4,8.4,3.7s7.9,3.4,11.6,4.7c3.9,1.3,9.5,3.7,13.1,5.7c3.4,1.9,8.5,4.1,11.2,4.9c2.7,0.8,8.1,2.8,11.9,4.3
				s9.4,3.5,12.5,4.3c6,1.7,12.5,4,15.4,5.5c1,0.5,2.8,1.2,4,1.5c1.1,0.3,3,1,4.1,1.6c-0.2-0.4-0.4-0.9-0.6-1.3
				c-0.6-0.2-1.3-0.5-2.2-0.8C230.4,132.2,228,131.1,227.3,130.7L227.3,130.7z"/>
			<path class="st1" d="M76.8,143.3c10.4-5.3,26.1-14.2,30-16.9c4.9-3.5,10.1-6.6,18.7-11.2c4.8-2.6,10.6-5.8,12.9-7.2
				c4.9-3,14.3-8.7,20.4-12.5c2.3-1.4,7.4-4.5,11.4-6.8c13.4-7.9,19.5-11.8,22-13.9c1.4-1.1,5.1-3.6,8.4-5.3s8.9-5.2,12.5-7.5
				c3.6-2.3,8-5.1,9.8-6.1l0.9-0.5c0-0.5,0-1.1-0.1-1.6c-1.4,0.9-3.8,2.4-6.4,3.9c-3.5,1.9-8.2,4.8-10.6,6.4
				c-2.3,1.6-6.1,3.7-8.4,4.8s-5.6,3-7.3,4.3c-3.3,2.5-7.8,5.1-25.7,15.3c-6.3,3.6-11.5,6.7-11.7,7c-0.2,0.3-2.6,1.8-5.4,3.4
				c-2.8,1.6-6.6,3.9-8.6,5.2s-7.1,4.2-11.5,6.6c-9,4.9-15,8.6-24.5,15.2c-5.6,3.9-13.1,8.3-17.9,10.6c-3.9,1.8-9.8,5.2-12.6,7.1
				C74.3,143.4,75.6,143.4,76.8,143.3L76.8,143.3z"/>
			<path class="st1" d="M188.7,146.2c-2.2-3-4.9-6.8-5.9-8.5c-1-1.7-3.7-5.2-5.9-7.7s-4.1-4.9-4.3-5.4c-0.5-1.3-6.3-9.2-8.4-11.4
				c-1-1-3.8-4.7-6.4-8.2c-2.5-3.4-5.9-8-7.6-10c-5.6-7-7.7-9.7-9-12c-0.7-1.2-3.2-4.3-5.5-6.7s-6.2-6.9-8.7-9.9
				c-2.5-3-7.5-8.5-11.1-12.3c-4.8-4.9-8.8-9.4-11.6-12.6c-0.6,0.1-1.1,0.1-1.6,0.2c0.2,0.2,0.4,0.5,0.6,0.8c1,1.4,2.8,3.4,3.8,4.5
				c6.9,7,19.8,21.5,22.1,24.9c0.7,1.1,3,3.7,5.1,6s4.4,5,5.1,6.3c1.5,2.6,6.2,8.9,9.1,12.1c1.1,1.2,3.9,4.9,6.3,8.2
				s5.9,7.7,7.8,9.8s4.7,5.7,6.3,8c1.6,2.3,4.5,5.9,6.5,8s5,6,6.7,8.7s4.8,6.9,6.7,9.3c1.9,2.5,3.9,5.2,4.3,6.2c0.5,1,1,1.6,1.2,1.4
				C195,155.4,193.1,152,188.7,146.2L188.7,146.2z"/>
			<path class="st1" d="M98.1,167.1c0.6-0.6,3.1-4,5.6-7.6c8.9-13.1,9.9-14.5,12.9-18.4c1.7-2.1,4-5.4,5.1-7.2c1.1-1.8,4.2-5.9,7-9
				c5.6-6.3,7.1-8.5,10.3-14.4c1.2-2.2,3.8-6,5.9-8.3c2-2.3,4.7-5.7,6-7.5c1.2-1.8,3.4-4.5,4.9-6c1.4-1.5,3.2-3.3,4-4.1
				s2.7-2.8,4.3-4.5s4.2-4.4,5.7-6c1.5-1.6,4-4.8,5.6-7.2c1.6-2.4,3.4-4.9,4.1-5.7c4.5-5.1,12.2-15.3,13.8-18.5
				c2.2-4.3,5.8-9.8,9.1-13.8c0.8-0.9,1.7-2.1,2.5-3.2c0-0.9,0-1.8,0-2.7c-0.1,0.2-0.2,0.3-0.4,0.5c-1.6,2.1-4.4,5.7-6.2,7.9
				s-4.5,6.2-6.1,8.9c-2.5,4.2-10.5,15.2-14,19.2c-0.7,0.8-2.6,3.7-4.3,6.5c-3,4.9-6.4,8.9-18,20.5c-2.1,2.2-4.9,5.3-6.1,7.1
				c-1.2,1.7-3.8,5-5.7,7.2c-1.9,2.2-5.3,6.8-7.4,10.1c-2.2,3.5-6,8.3-8.8,11.3c-2.7,2.9-6,7.2-7.5,9.6c-1.5,2.4-4.7,7.1-7.1,10.4
				c-2.4,3.3-5.7,8.3-7.3,11c-3.1,5.4-7.1,11.1-9.2,13.5c-0.7,0.8-1.9,2.4-2.5,3.5c-0.6,1-1.7,2.6-2.6,3.6c0.5-0.1,0.9-0.1,1.4-0.2
				c0.3-0.5,0.8-1.1,1.3-1.9C95.8,169.7,97.5,167.6,98.1,167.1L98.1,167.1z"/>
			<path class="st1" d="M123.2,18.1c2.6,11.4,7.2,28.8,8.9,33.2c2.1,5.6,3.9,11.4,6.2,20.9c1.3,5.3,3,11.7,3.8,14.3
				c1.6,5.4,4.9,16,7,22.9c0.8,2.6,2.5,8.3,3.8,12.7c4.4,15,6.6,21.8,8,24.8c0.8,1.6,2.2,5.9,3.1,9.5c0.9,3.6,2.8,9.9,4.1,14
				c1.4,4.1,2.9,9,3.5,11l0.3,1c0.5,0.1,1,0.2,1.6,0.3c-0.6-1.5-1.4-4.3-2.1-7.1c-1-3.9-2.6-9.2-3.5-11.8s-2.1-6.9-2.6-9.4
				s-1.5-6.1-2.3-8.1c-1.6-3.8-3-8.8-8.4-28.7c-1.9-7-3.6-12.8-3.9-13.1s-1.1-3-2-6.1s-2.1-7.4-2.9-9.6s-2.3-7.9-3.5-12.8
				c-2.5-10-4.6-16.6-8.6-27.6c-2.4-6.4-4.8-14.8-5.8-20c-0.8-4.2-2.6-10.8-3.7-14C123.7,15.6,123.4,16.9,123.2,18.1L123.2,18.1z"/>
			<path class="st1" d="M151.4,36.7c-0.4,3.7-1,8.3-1.4,10.2s-0.8,6.3-0.9,9.6s-0.3,6.4-0.5,6.9c-0.5,1.3-1.6,11-1.6,14
				c0,1.4-0.4,6.1-0.9,10.3c-0.5,4.2-1,9.9-1.2,12.5c-0.6,8.9-0.9,12.4-1.5,14.9c-0.3,1.4-0.6,5.3-0.5,8.6s-0.1,9.3-0.3,13.2
				c-0.2,3.9-0.3,11.3-0.2,16.6c0.1,6.9,0.1,12.9-0.1,17.1c0.5,0.3,0.9,0.6,1.4,1c0-0.3,0-0.6,0.1-1c0.2-1.7,0.3-4.4,0.2-5.9
				c-0.3-9.8,0.1-29.2,0.7-33.3c0.2-1.3,0.3-4.8,0.3-7.9s0.2-6.7,0.5-8.1c0.7-2.9,1.5-10.7,1.6-15c0-1.6,0.5-6.2,1-10.3
				s0.9-9.7,1-12.5s0.4-7.4,0.8-10.1s0.7-7.4,0.7-10.2s0.5-7.8,1-11s1.2-8.3,1.4-11.4s0.7-6.5,1.1-7.5c0.4-1.1,0.4-1.9,0-1.9
				C153.1,25.6,152.2,29.4,151.4,36.7L151.4,36.7z"/>
			<path class="st1" d="M96.9,77c1.4,0.4,3.9,1.3,5.5,2s5.6,2.4,8.8,3.6c3.2,1.2,8.1,3.3,10.9,4.6c2.7,1.3,6.7,3,8.8,3.8
				c2.1,0.8,7.2,3,11.3,5s8.6,3.8,9.9,4.2s2.5,0.8,2.6,1c0.2,0.2,10.1,4.5,20,8.7c3.5,1.5,8.5,3.9,11,5.3c2.5,1.5,7.1,3.5,10.2,4.6
				s8.2,3.2,11.4,4.7c2.3,1.1,5,2.3,7,3.2c0.8-0.2,1.6-0.5,2.4-0.7c-0.2-0.1-0.5-0.2-0.8-0.4c-1.9-0.9-6.2-2.9-9.4-4.5
				s-6.9-3.2-8.1-3.6c-4.3-1.3-7.9-3-11.9-5.6c-4.7-3.1-27.2-13.1-34.6-15.4c-1.6-0.5-4.4-1.6-6.2-2.5c-2.8-1.3-14.5-6.1-30-12.3
				c-1.9-0.8-6.4-2.7-9.9-4.4s-8.5-3.6-11.1-4.4s-7.6-2.6-11-4c-1.1-0.5-2-0.8-2.8-1.1c0.3,0.8,0.7,1.6,1,2.4
				C85.9,73.2,93.2,76,96.9,77L96.9,77z"/>
			<path class="st1" d="M231.9,82.5c-0.8,0-5,0.8-9.2,1.8c-15.4,3.6-17.1,3.9-22,4.7c-2.7,0.4-6.6,1.2-8.6,1.8
				c-2,0.6-7.1,1.4-11.2,1.8c-8.4,0.8-11,1.4-17.3,3.6c-2.4,0.8-6.9,1.8-9.9,2.1s-7.3,1-9.5,1.5c-2.1,0.5-5.6,1-7.6,1.1
				c-2.1,0.1-4.6,0.2-5.7,0.3c-1.1,0.1-3.9,0.2-6.2,0.4s-6.1,0.4-8.2,0.6c-2.2,0.1-6.2,0.8-9,1.4c-2.8,0.6-5.9,1.3-6.9,1.4
				c-6.8,0.6-19.4,3-22.7,4.2c-4.5,1.6-10.9,3.2-16,3.9c-1.2,0.2-2.7,0.4-4,0.7c-0.6,0.7-1.2,1.3-1.9,2c0.2,0,0.4-0.1,0.6-0.1
				c2.6-0.5,7.1-1.2,9.9-1.6c2.8-0.4,7.6-1.5,10.5-2.4c4.8-1.4,18.1-4,23.3-4.6c1.1-0.1,4.5-0.9,7.6-1.8c5.5-1.6,10.8-2.1,27.2-2.9
				c3-0.1,7.2-0.6,9.3-1c2.1-0.4,6.1-1.1,9.1-1.4s8.5-1.4,12.3-2.4c4-1,10-2,14.1-2.3c3.9-0.3,9.3-1.2,12.1-1.9
				c2.7-0.8,8.3-2,12.3-2.8s9.8-2.2,12.8-3.1c5.9-1.8,12.8-3.4,16-3.7c1.1-0.1,3-0.5,4.2-0.9c1.1-0.4,3-0.7,4.3-0.9
				c-0.4-0.3-0.8-0.5-1.2-0.8c-0.6,0.1-1.3,0.3-2.3,0.5C235.4,82.1,232.7,82.5,231.9,82.5L231.9,82.5z"/>
			<path class="st1" d="M112,174.7c5.9-10.1,14.3-26,16.1-30.4c2.2-5.5,4.9-11,9.7-19.5c2.6-4.7,5.8-10.6,6.9-13
				c2.5-5.1,7.3-15.1,10.4-21.5c1.2-2.5,3.8-7.8,5.9-11.9c7-13.9,10-20.5,11-23.6c0.5-1.7,2.4-5.8,4.2-9c1.8-3.2,4.7-9.1,6.4-13.1
				c1.8-3.9,4-8.6,4.9-10.4l0.5-0.9c-0.3-0.4-0.6-0.9-0.9-1.3c-0.6,1.5-1.9,4.1-3.3,6.7c-1.9,3.5-4.3,8.5-5.4,11.1
				c-1.1,2.6-3.1,6.5-4.5,8.6c-1.3,2.1-3,5.5-3.8,7.5c-1.5,3.9-3.8,8.5-13.3,26.8c-3.3,6.4-6.1,11.9-6.1,12.2s-1.2,3-2.7,5.8
				s-3.5,6.9-4.4,9s-3.7,7.4-6.1,11.7c-4.9,9-7.9,15.3-12.4,26.1c-2.6,6.3-6.5,14.1-9.3,18.6c-2.3,3.6-5.4,9.7-6.8,12.8
				C110,176.2,111,175.5,112,174.7L112,174.7z"/>
		</g>
	</g>
	<path class="st1" d="M9.6,97.9c2.3,0.2,4.8-0.5,7.4-2.3c2.7-1.8,3.8-3.8,3.7-6.6c-0.1-2-0.4-2.6-2.1-4.6C13.4,78.6,6.7,79.9,7,86.5
		c0.1,2.2,0.3,2.7,1.7,3.7c2.6,2,3.3,1.4,1.1-1.1c-1.6-1.8-1.8-3.2-0.6-5.1c0.8-1.3,1.2-1.5,2.5-1.5c3,0.2,6,3.2,6.4,6.4
		c0.5,3.5-4.8,7.1-8.7,6c-3.9-1-7.4-7-6.7-11.5c0.4-2.8,2.9-6.4,5.2-7.5c3.1-1.5,12.8-2.5,17.1-1.8c2.8,0.5,3.9,0.5,4.2,0
		s-0.4-0.9-3.1-1.8c-3.3-1-4.2-1.1-10.7-0.4c-6.7,0.6-7.3,0.8-9.7,2.2c-3,1.8-5.3,5.4-5.7,8.8C-0.7,89.5,4.4,97.3,9.6,97.9L9.6,97.9
		z M289.6,189c-1.9-0.1-1.9,0-1.2,0.9c1.1,1.6,3.6,1.2,4.8-0.8c1.1-1.7,0.2-5.2-1.7-6.7c-1.6-1.3-5-1.1-7.1,0.5
		c-4,2.8-2.2,9.9,3.3,12.9c1.4,0.8,3,1.2,3.9,1.1c2.4-0.3,5.4-2.6,7.8-6c2.2-3,2.2-3.2,1.8-6.2c-0.6-4.1-3.6-10.7-7.2-15.9
		c-2.9-4.1-7.2-8.3-8.3-8.2c-0.3,0,0.4,0.8,1.5,1.8c2.9,2.3,4.6,4.6,7.8,10.8c2.1,3.9,3,6.4,3.6,9.5l0.9,4.1l-1.8,2.6
		c-1,1.4-2.8,3.3-4,4.1c-2.1,1.4-2.3,1.4-4,0.9c-2.6-0.8-5.6-4.5-5.6-6.9c0-2.4,1.4-3.9,3.9-4.2c2.2-0.3,3.8,0.9,4,3.1
		C292.3,188.4,291.8,189.1,289.6,189L289.6,189z M307.1,147.2c4.4-1.9,6.8-8,5.8-15.1c-0.6-4.5-1.3-6.1-3.9-8.6
		c-3.1-3-9.4-4.8-13.8-3.9c-2.4,0.5-5.2,4.7-5.3,7.7c0,3.2,2,6.1,5.2,7.4c4.8,1.9,9.6-0.6,9-4.8c-0.3-2.4-2-3.9-4-3.6
		c-2.6,0.4-3.9,3.7-1.9,4.9c1.1,0.7,2.1-0.1,1.2-0.9c-0.9-0.9-0.4-2.4,0.8-2.4c2.6,0,3,3.7,0.6,5c-2,1-4.6,0.6-6.7-1.1
		c-1.4-1.1-1.8-1.8-2-3.7c-0.2-2,0-2.6,1.4-4.3c2.1-2.5,4.1-2.8,8.4-1.4c3.9,1.3,7.2,4.1,8.1,6.5c1.1,3.3,1.2,9.2,0.2,12
		c-2.4,6.8-11.6,8.2-19,2.9c-1.2-0.9-2.3-1.4-2.5-1.2c-0.8,1,7.1,5.5,10.3,5.9C301,148.6,305.3,147.9,307.1,147.2L307.1,147.2z
		 M154.1,154.6c0.9-0.4,6.2-2,11.8-3.4c5.5-1.4,12.9-3.4,16.4-4.3c3.5-0.9,9.5-2.5,13.4-3.5c11.7-3,17.7-4.7,23-6.5
		c2.8-1,6.4-2.1,8-2.5c1.6-0.4,3.3-0.9,3.6-1.1c0.4-0.2,1.2,0.4,2,1.3c1.3,1.7,2.9,2.1,2.7,0.8c0-0.4-0.5-1.1-1-1.6s-1-1.3-1-1.8
		s-0.4-0.9-0.7-0.8s-2.9-3.4-5.7-7.7c-2.8-4.3-6.6-9.2-8.3-11c-3.3-3.3-8-9.8-9.7-13.3c-0.5-1.1-3.7-6-7-10.9
		c-3.4-4.9-6.1-9-6.1-9.2c-0.1-0.4-8.7-11.9-11.5-15.2c-1.3-1.5-3.9-5.1-5.7-7.8s-5.1-7.4-7.2-10.2s-5.1-7-6.6-9.2
		c-2-3-2.9-3.9-3.5-3.6c-0.4,0.2-3.3,1.7-6.4,3.2c-3.1,1.6-6.9,3.4-8.5,4.1s-5.4,3-8.4,5.1s-7,4.6-9,5.4c-1.9,0.9-5.2,2.4-7.4,3.4
		c-2.1,1-5.8,2.6-8.1,3.6c-2.3,1-6.5,3.1-9.3,4.7c-2.8,1.6-7.3,3.8-10,5c-2.7,1.1-6.3,3.1-8,4.3c-1.7,1.2-4.4,2.8-6.1,3.4
		c-1.6,0.6-3.6,1.5-4.3,2c-0.7,0.5-2.6,1.4-4.1,2s-2.9,1.4-2.9,1.7c-0.1,0.4,0.2,0.6,0.6,0.5s1.8,1.2,3,2.8c1.3,1.6,3.3,4,4.5,5.2
		c5.5,5.9,9.2,10.3,11.3,13.7c3.2,5.2,4.7,7.1,7.6,10.3c1.4,1.5,3.6,4.3,4.9,6.1c1.3,1.8,4.4,5.6,6.9,8.4c6.4,7,10.2,11.8,13.9,17.1
		c4.6,6.7,9.8,13.1,10.9,13.6C134.2,160.1,149.1,157,154.1,154.6L154.1,154.6z M129.2,153c-2-2.5-5.4-7.2-7.6-10.3
		c-3.9-5.5-5.3-7.1-11-13.1c-5.4-5.7-7.4-7.9-9-10.3c-0.9-1.3-3.3-4.2-5.2-6.3c-1.9-2.1-5.1-6.2-7-9.1c-3.6-5.3-6.1-8.2-11.5-13.8
		c-3-3-6.4-7.2-6.9-8.5c-0.3-0.7,3.1-2.6,8.8-4.9c2-0.8,5.5-2.7,7.8-4.1s5.2-3,6.6-3.4c1.4-0.4,5.9-2.6,10.1-4.8
		c4.2-2.3,8.8-4.5,10.2-5s4.5-1.8,6.8-3c2.4-1.1,5.9-2.9,7.9-3.8c2-0.9,6-3.4,8.9-5.5s6.6-4.5,8.4-5.3c3.5-1.7,8.7-4.3,12.4-6.4
		c1.3-0.7,2.4-1.3,2.5-1.2c0.5,0.5,13.6,20.3,16.1,24.4c1.8,2.8,3.7,5.7,4.4,6.4c1,1.1,13.4,18.9,27.4,39.7c2,3,5.5,7.2,7.6,9.4
		c3.5,3.5,13.3,17.3,12.8,17.9c-0.1,0.1-1.7,0.7-3.6,1.2s-5.9,1.8-8.9,2.8c-3,1-7.4,2.2-9.8,2.8s-7.6,1.9-11.6,2.9
		c-16.3,4.1-25.8,6.5-31.5,7.8c-3.3,0.8-8,2.1-10.3,3c-2.3,0.9-6.8,2.2-10,2.9s-7,1.5-8.4,1.7l-2.6,0.4L129.2,153z M34.3,63.2
		c-1.1,0.2-1.8,0.6-1.6,0.9c0.4,0.8,4.2-0.2,10.9-3c3.4-1.4,7.8-3.1,9.7-3.7c1.9-0.6,5.9-2.4,8.9-3.9c2.9-1.5,5.8-2.8,6.3-2.9
		c1.4-0.2,10.4-3.9,13.1-5.4c1.3-0.7,5.5-2.6,9.5-4.2s9.1-3.8,11.6-5c8.1-3.8,11.3-5.2,13.8-5.9c1.4-0.4,4.9-2.1,7.8-3.7
		s8.2-4.4,11.7-6.1c3.5-1.7,10.1-5.2,14.6-7.9c7.1-4.1,13.2-7.4,17-9.2c0.9-0.4,1.5,0.1,3.9,2.9c1.6,1.9,3.2,4,3.6,4.8s3.1,4,6,7.2
		c10.6,11.8,11.7,13.1,14.7,17c1.7,2.2,4.3,5.2,5.8,6.7c1.5,1.5,4.7,5.5,7,8.9c4.8,6.9,6.5,9,11.5,13.5c1.9,1.7,4.9,5.2,6.6,7.7
		c1.8,2.5,4.4,6,5.9,7.6c1.5,1.6,3.5,4.4,4.6,6.1s2.4,3.9,3,4.9c0.6,0.9,2.1,3.3,3.4,5.3c1.3,2,3.3,5.1,4.5,7s3.7,5.1,5.6,7.2
		s3.9,4.5,4.5,5.4c3.9,5.6,12,15.5,14.6,17.9c3.6,3.2,8.1,8,11.2,12.1c1.2,1.6,2.9,3.7,3.9,4.8l1.8,2l-1.7,0.3
		c-11.3,1.8-30.9,5.9-35.7,7.5c-5.7,1.8-11.6,3.2-21.2,5.1c-5.3,1-11.8,2.4-14.5,3c-5.5,1.4-16.3,4-23.2,5.8
		c-2.6,0.7-8.4,2.1-12.9,3.1c-15.2,3.5-22.1,5.4-25.1,6.7c-1.6,0.7-6,1.9-9.6,2.6c-3.6,0.7-10,2.3-14.1,3.4s-9.2,2.4-11.2,2.9
		l-3.6,0.8l-1.8-3.2c-2.1-3.7-6.9-10.4-9.5-13.3c-1-1.1-2.6-3.2-3.5-4.7s-3.4-5-5.4-7.8c-2-2.8-5-7.2-6.6-9.8c-1.6-2.6-4-6.2-5.3-8
		c-1.3-1.8-4.4-6.5-6.8-10.3s-5.1-7.9-6-9c-0.9-1.1-1.6-2.1-1.7-2.2c0-0.3-6-9.3-12-18.2c-2.1-3.1-5-7.9-6.3-10.5s-4-6.9-6-9.4
		s-5.1-7.1-7-10.1s-4.2-6.7-5.1-8.2s-1.9-2.7-2.1-2.7c-1,0.1-0.7,1.4,1.2,4.4c1.1,1.8,3.6,5.8,5.4,8.9c1.8,3.1,4,6.5,4.8,7.4
		c2.9,3.4,4.9,6.8,6.9,11.2c2.3,5.1,15.6,25.9,20.5,31.8c1.1,1.3,2.8,3.8,3.8,5.5c1.6,2.6,8.8,13,18.4,26.7c1.2,1.7,3.8,5.8,5.9,9.1
		s5.1,7.7,6.9,9.8s4.9,6.3,7,9.4c3.8,5.6,3.8,5.6,5.1,4.9c0.7-0.4,4.5-1.4,8.4-2.2c3.9-0.8,9.3-2.1,12-2.9s7-1.7,9.5-2.1
		c2.5-0.4,6.2-1.2,8.2-1.9c3.9-1.4,8.9-2.5,29.1-6.9c7-1.5,13-2.9,13.3-3.1s3-1,6.2-1.7s7.5-1.8,9.7-2.4c2.2-0.6,8-1.9,12.9-2.8
		c10.1-2,16.9-3.7,28-7.1c6.6-2,15-4,20.3-4.7c5.6-0.8,15.6-3.1,16.1-3.7c0.2-0.3-1-2.2-2.7-4.3s-4.5-5.7-6.2-7.9s-5-5.9-7.1-8.1
		c-3.5-3.5-12.2-13.9-15.2-18.2c-0.6-0.9-3-3.5-5.3-5.7c-4-4-7.1-8.4-15.6-22.4c-1.6-2.6-4-6-5.4-7.6s-3.9-4.9-5.6-7.3
		c-1.7-2.4-5.3-6.7-8-9.6c-2.8-3-6.6-7.8-8.8-11.2c-2.1-3.3-5.5-7.6-7.5-9.6c-2-2-5.8-6.3-8.4-9.4c-2.6-3.2-6.6-7.5-8.9-9.7
		c-4.4-4.3-9.1-9.5-10.9-12.2c-0.6-0.9-1.9-2.4-2.8-3.3s-2.2-2.5-3-3.5s-1.8-2.2-2.3-2.6c-0.9-0.6-0.9-0.5-0.5,0.4s0.2,1.2-2.4,2.3
		c-1.6,0.7-3.9,1.9-5.3,2.6c-8.5,5-25.6,14-29.5,15.4c-1.2,0.4-4.4,2-7,3.5s-6,3-7.3,3.4c-2.8,0.8-10.1,3.9-13.9,5.9
		c-1.4,0.7-5.7,2.6-9.5,4.1c-3.8,1.5-8.9,3.9-11.4,5.2c-2.5,1.3-6.6,3.2-9.2,4.2c-2.6,1-6.8,2.9-9.3,4.3c-2.5,1.4-7.1,3.4-10.1,4.4
		s-7.8,3-10.6,4.2C38.6,61.8,35.4,63,34.3,63.2L34.3,63.2z M30.7,62.1c1.1,0.8,2.7,1,2.6,0.3c0-0.2-1.1-1.4-2.5-2.8
		c-3.5-3.5-6.6-7.9-8.5-12c-2.1-4.5-2.6-10.4-1.4-14.2c0.9-2.8,3.7-6.4,5.6-7.1c5.3-2.1,13.6,4.8,14.6,12.2c0.4,2.6,0.3,3.1-1,4.6
		c-1.1,1.3-1.9,1.7-3.7,2c-2.9,0.4-4.7-0.8-4.8-3.2c-0.1-1.6,0.1-1.7,2.2-2.2c3.1-0.8,3-2.2-0.1-2c-2.8,0.2-4,1.1-4.4,3.3
		c-0.3,1.5-0.1,2.2,0.7,3.6c2.8,4.7,10.5,3.8,13-1.4c1.9-4-0.5-11.4-5.2-16c-2.9-2.8-4.9-3.9-8-4.2c-3.2-0.4-5.6,0.7-8.4,3.9
		c-5.6,6.6-5,17.1,1.6,26.6C25,56.2,29.1,60.9,30.7,62.1L30.7,62.1z"/>
	<path class="st1" d="M142.3,62.8c0.6,0.2,1,0.2,1.4,0.1c0.1,0,0.2-0.1,0.1-0.2C143.3,62.6,142.8,62.6,142.3,62.8z"/>
	<path class="st1" d="M110.1,68.2c-0.2,0-0.3,0-0.4,0C109.8,68.3,109.9,68.4,110.1,68.2z"/>
	<path class="st1" d="M112.9,66.4c0.3-0.1,0.6-0.1,1-0.2c0.1,0,0.1,0,0.2,0c0.3,0.3,0.7,0.1,0.9,0.2c0.2-0.3,0.1-0.5-0.2-0.7
		c-0.2,0-0.4,0-0.6,0c0-0.1,0-0.2,0-0.2l-1.6,0.8c0,0,0.1,0.1,0.1,0.1C112.8,66.4,112.9,66.4,112.9,66.4z"/>
	<path class="st1" d="M115.1,65.7C115,65.7,115,65.7,115.1,65.7c-0.1,0-0.2,0-0.2,0.1C114.9,65.8,114.9,65.8,115.1,65.7
		C115,65.8,115,65.7,115.1,65.7z"/>
	<path class="st1" d="M114.8,65.8C114.8,65.8,114.8,65.8,114.8,65.8C114.8,65.8,114.8,65.8,114.8,65.8
		C114.8,65.8,114.8,65.8,114.8,65.8z"/>
	<path class="st1" d="M143.2,63.4c0,0,0.1,0,0.1-0.1s0-0.1,0-0.1c0,0-0.1,0-0.1,0.1C143.2,63.3,143.2,63.4,143.2,63.4z"/>
	<path class="st1" d="M114.9,65.3C114.9,65.3,114.9,65.3,114.9,65.3L114.9,65.3C115,65.3,114.9,65.3,114.9,65.3
		C114.9,65.3,114.9,65.3,114.9,65.3z"/>
	<path class="st1" d="M114.9,65.3C114.9,65.3,114.9,65.3,114.9,65.3C114.8,65.2,114.9,65.2,114.9,65.3z"/>
	<path class="st1" d="M109.7,68.2L109.7,68.2L109.7,68.2C109.7,68.2,109.7,68.2,109.7,68.2C109.7,68.2,109.7,68.2,109.7,68.2z"/>
	<path class="st1" d="M115,65.3C114.9,65.3,114.9,65.3,115,65.3L115,65.3z"/>
	<path class="st1" d="M114.9,65.3C114.9,65.3,114.9,65.3,114.9,65.3C114.9,65.2,114.8,65.2,114.9,65.3z"/>
	<path class="st1" d="M234.6,117.1l-31.5-21.4l-5.3-4.3l-6.2-5c-0.1,0-0.2,0-0.3,0c0,0,0,0,0-0.1c0,0,0,0,0.1,0s0,0,0.1,0L172.8,71
		l-6.8-5.7l-6.4-0.1l-5.5,0.6l-7.2-3.5c0,0-0.1,0-0.1,0c0,0,0,0,0,0l-0.5-0.2l-1.8-0.3c-0.1,0.1-0.2,0.1-0.6,0v0.4h0.6
		c0,0.2-0.1,0.5,0.1,0.7c0.2,0.1,0.3,0.1,0.5,0.1c0.1,0.3,0.4,0.3,0.7,0.2c0.2-0.1,0.2,0.1,0.3,0.2c0.1,0.1,0,0.2-0.1,0.3
		c-0.1,0.1-0.1,0.1-0.3,0c-0.2-0.1-0.9-0.3-1.1-0.3c-0.1,0-0.2,0-0.3,0c-0.3,0-0.4,0.5-0.8,0.3c-0.3,0.1-0.5,0.2-0.8,0.3
		c-0.3,0.1-0.3,0.4-0.5,0.6c0.3,0.1,0.6,0.3,0.9,0.4c-0.1,0.2-0.2,0.3-0.5,0.1c-0.2-0.1-0.5-0.3-0.8-0.1c-0.1-0.1-0.2-0.3-0.2-0.4
		c-0.1-0.1-0.1-0.2-0.2-0.4c0.1-0.1,0.2-0.2,0.3-0.4c-0.1-0.1-0.2-0.1-0.3-0.1c-0.3,0-0.6,0-1.2,0c0.3-0.1,0.5-0.2,0.6-0.2
		c0.1-0.2,0.1-0.3-0.1-0.5c-0.1-0.1-0.3-0.2-0.5-0.2c-0.1,0-0.3,0-0.4,0c-0.1,0-0.2-0.1-0.5-0.2c0.3,0,0.5,0,0.7,0
		c0.3,0,0.3-0.1,0.2-0.4c-0.2-0.1-0.5-0.1-0.7,0.1v0c0,0,0,0,0,0c-0.2,0-0.4,0.1-0.5-0.2c0.2,0,0.3,0.1,0.5,0.2h0
		c0-0.1-0.1-0.2,0-0.4c0.1-0.3,0.3-0.4,0.6-0.3c0.4,0.1,0.8,0.2,1.2,0.3c-0.2,0.2-0.4,0.4-0.6,0.6c0.3,0.2,0.6,0.2,0.9,0.2
		c0.5,0,1.1-0.1,1.6-0.1c0.2,0,0.4-0.1,0.4-0.3c0-0.1,0-0.2,0.1-0.3c0,0,0.1-0.1,0.1-0.1l-4.3-0.8c-0.1,0.1-0.3,0.1-0.5,0.2
		c-0.2,0-0.3,0-0.4-0.2c0.1,0,0.3,0,0.4,0l-1-0.2c0,0.1,0,0.1,0.1,0.2c0.1,0.1-0.1,0.3-0.3,0.3s-0.3-0.1-0.3-0.2c0-0.1,0-0.2,0-0.3
		l-1.3-0.2l-6.6-0.9l-5.8,2.2h0l-2.5,0.9c-0.1,0.1-0.1,0.1-0.2,0.2c0,0-0.1,0-0.1,0l-3.7,1.4l-0.5,0.2c0.2,0.1,0.4,0.2,0.6,0.2h0
		c0,0,0,0,0,0c0,0,0,0,0.1,0c0,0-0.1,0-0.1,0c0,0,0,0,0,0c0,0.2-0.2,0.3-0.4,0.2c-0.2-0.1-0.4-0.1-0.4-0.1c0-0.1,0-0.1-0.1-0.2
		l-0.5,0.2c0,0,0,0.1,0,0.1c-0.1,0-0.2,0-0.2,0l-0.7,0.3c0,0,0,0.1,0,0.1c0.3,0,0.6,0,1,0c0.1,0.4-0.4,0.2-0.4,0.5
		c0,0,0.1,0.1,0.1,0.1c0.3,0.1,0.6,0.1,0.9,0.1c0.1,0,0.1,0.1,0.2,0.2s-0.1,0.2-0.1,0.2c-0.1,0-0.3,0.1-0.4,0.1
		c-0.5-0.1-0.5-0.1-0.6,0.2c0,0.1-0.1,0.1-0.1,0.2c-0.1,0-0.2,0-0.2,0c-0.4-0.2-0.8-0.2-1.2,0c-0.6,0.2-1.1,0.1-1.6-0.2
		c-0.1-0.1-0.1-0.1-0.1-0.2l-1.8,0.9c0,0,0,0,0,0c-0.1,0.1-0.3,0.3-0.5,0.5c0.3,0.1,0.6,0.1,0.9,0.2c0,0.1,0.1,0.2,0.1,0.3
		c-0.2,0.1-0.4,0.2-0.7,0.4c-0.2-0.2-0.4-0.3-0.7-0.5h0c0,0.2-0.1,0.4,0.1,0.6c0,0,0,0.2-0.1,0.3c0.2,0,0.4,0,0.6,0
		c0.2,0,0.3,0.2,0.6,0.3c-0.1,0.2-0.3,0.4-0.4,0.6c0,0,0,0,0,0c0.1,0,0.2,0,0.2,0s0.1,0.1,0.1,0.2c-0.1,0-0.2,0-0.2,0
		c-0.1,0-0.1-0.1-0.1-0.2c0,0,0,0,0,0c0,0,0,0,0,0c-0.1,0-0.2,0-0.3,0c0-0.2-0.1-0.4-0.1-0.6c-0.3,0.1-0.5,0.2-0.8,0.3
		c-0.4-0.1-0.6-0.4-1-0.4c0,0,0,0-0.1,0l-1.1,1.1c0,0,0,0,0.1,0c-0.1,0.1-0.2,0.2-0.3,0.3c0,0,0,0-0.1,0l-0.3,0.2
		c0.1,0,0.1,0.2,0.1,0.3h0c0,0,0,0,0,0c0,0,0,0,0.1,0c0.1,0,0.1,0,0.2,0.1c0,0-0.1,0-0.1,0c-0.1,0-0.1-0.1-0.2-0.1c0,0,0,0,0,0
		c0,0,0,0,0,0c-0.1,0-0.2,0-0.4,0l-1,1c0,0,0.1,0,0.1,0c0,0-0.1,0.1-0.1,0.1s-0.1,0-0.1,0l-3.9,3.7c0,0,0.1,0,0.1,0
		c0,0.1-0.1,0.1-0.1,0.1c-0.1,0-0.1-0.1-0.1-0.1L87.9,88.7l-6.5,1.1L75,94.1l-20.7,17.2l-3.9,3L16.6,139h251L234.6,117.1z"/>
	<path class="st1" d="M141.5,63.1c0,0-0.1,0.1-0.1,0.2c0,0,0.1,0.1,0.1,0.1c0.1,0,0.2,0,0.2-0.1c0.1,0,0.3,0,0.2-0.2
		c0-0.1-0.2-0.1-0.3-0.1C141.6,63,141.5,63.1,141.5,63.1z"/>
</g>
<path d="M143.7,64.4c-0.5-0.1-0.9-0.1-1.4,0.1c0.5,0.2,0.9,0.2,1.3,0.1C143.7,64.6,143.8,64.5,143.7,64.4L143.7,64.4z"/>
<path d="M111.6,69.7c-0.2,0-0.3,0-0.4,0C111.3,69.7,111.4,69.8,111.6,69.7z"/>
<path d="M115.5,67.3c0-0.1,0-0.1,0-0.2l-1.5,0.8c0,0,0.1,0.1,0.1,0.1c0.1,0,0.1,0,0.2,0l0.9-0.2c0.1,0,0.1,0,0.1,0
	c0.3,0.2,0.6,0.1,0.9,0.2c0.2-0.3,0.1-0.5-0.2-0.6C115.9,67.4,115.8,67.3,115.5,67.3z"/>
<path d="M116.3,67.3C116.3,67.3,116.3,67.3,116.3,67.3c-0.1,0-0.2,0-0.2,0.1C116.2,67.4,116.2,67.4,116.3,67.3
	C116.3,67.4,116.3,67.3,116.3,67.3L116.3,67.3z"/>
<path d="M116.1,67.4C116.1,67.4,116.1,67.4,116.1,67.4C116.1,67.4,116.1,67.4,116.1,67.4C116.1,67.4,116.1,67.4,116.1,67.4
	L116.1,67.4z"/>
<path d="M192.6,121.4C192.6,121.4,192.6,121.4,192.6,121.4c0-0.6-0.1-1.1-0.3-1.6c-0.1-0.3-0.2-0.6-0.5-0.9c0,0,0,0-0.1,0
	c0-0.1,0-0.1-0.1-0.2c-0.2-0.2-0.4-0.4-0.7-0.5c-0.5-0.2-1.1-0.1-1.5,0.2c-0.2,0.1-0.4,0.3-0.5,0.5c0,0,0,0,0,0
	c-0.2,0.3-0.4,0.6-0.4,0.9c-0.1,0.5-0.2,1-0.2,1.6v0c-0.1,0.8-0.1,1.6,0,2.4c0,0.8,0.1,1.6,0.5,2.4c0.1,0.3,0.3,0.6,0.4,1
	c0.1,0.3,0.3,0.5,0.6,0.6c0.2,0.2,0.4,0.4,0.8,0.4c0,0,0.1,0,0.1,0c0,0,0.1,0,0.1,0c0.4,0,0.7-0.2,0.8-0.5c0.2-0.2,0.3-0.3,0.4-0.6
	c0.1-0.3,0.2-0.7,0.4-1c0.3-0.8,0.4-1.6,0.4-2.4C192.8,123.1,192.8,122.2,192.6,121.4L192.6,121.4z"/>
<path d="M143.2,65.1c0,0,0.1,0,0.1-0.1c0,0,0-0.1,0-0.1c0,0-0.1,0-0.1,0S143.2,65.1,143.2,65.1z"/>
<path d="M116.2,66.9L116.2,66.9L116.2,66.9z"/>
<path d="M209.9,119.5c-0.6-0.5-1.4-0.7-2.1-1.1c-0.1,0-0.2,0-0.4,0c0,0.9,0,1.8,0,2.6c0,1.3,0,2.7,0,4v2.4c0,0.1,0,0.3,0,0.4
	c0,0,0.1,0,0.1,0c0.3-0.1,0.5-0.1,0.8-0.2c0.2-0.1,0.4-0.2,0.6-0.3c0.1-0.1,0.2-0.2,0.4-0.3c0.2-0.2,0.4-0.4,0.6-0.8
	c0.3-0.6,0.5-1.3,0.7-2.2c0-0.2,0.1-0.5,0.1-0.8c0-0.3,0.1-0.7,0.1-1c0-0.3,0-0.5,0-0.8C210.7,120.8,210.6,120,209.9,119.5
	L209.9,119.5z"/>
<path d="M116.2,66.9C116.2,66.9,116.2,66.9,116.2,66.9C116.1,66.8,116.2,66.9,116.2,66.9z"/>
<path d="M111.2,69.7L111.2,69.7L111.2,69.7L111.2,69.7L111.2,69.7z"/>
<path d="M187.3,123C187.2,123,187.2,123,187.3,123c0,0.2,0.1,0.4,0.2,0.7c0,0.1,0.1,0.1,0.1,0.2c0.1,0.2,0.3,0.3,0.4,0.4
	c-0.1-0.2-0.2-0.4-0.3-0.6C187.6,123.5,187.5,123.1,187.3,123L187.3,123z"/>
<path d="M116.3,66.9C116.3,66.9,116.2,66.9,116.3,66.9L116.3,66.9z"/>
<path d="M116.2,66.9C116.2,66.9,116.1,66.9,116.2,66.9z"/>
<path d="M230.2,116.2l-30-20.3l-5-4.1l-5.9-4.8c-0.1,0-0.2,0-0.3,0c0,0,0,0,0-0.1c0,0,0,0,0.1,0c0,0,0,0,0.1,0l-17.8-14.5l-6.5-5.4
	l-6.1-0.1l-5.3,0.6l-6.9-3.4c0,0-0.1,0-0.1,0c0,0,0,0,0,0l-0.4-0.2l-1.7-0.3c-0.1,0.1-0.2,0.1-0.6,0v0.4h0.5c0,0.2-0.1,0.5,0.1,0.6
	c0.2,0.1,0.3,0.1,0.4,0.1c0.1,0.3,0.4,0.3,0.7,0.2c0.2-0.1,0.2,0.1,0.3,0.2c0.1,0.1,0,0.2-0.1,0.3c-0.1,0-0.1,0.1-0.3,0
	c-0.1-0.1-0.9-0.3-1-0.3c-0.1,0-0.2,0-0.3,0c-0.3,0-0.4,0.4-0.7,0.2c-0.3,0.1-0.5,0.2-0.8,0.2c-0.3,0.1-0.3,0.3-0.5,0.5
	c0.3,0.1,0.6,0.3,0.9,0.4c-0.1,0.2-0.2,0.3-0.4,0.1c-0.2-0.1-0.5-0.3-0.8-0.1c-0.1-0.1-0.1-0.3-0.2-0.4c-0.1-0.1-0.1-0.2-0.2-0.3
	c0.1-0.1,0.2-0.2,0.3-0.4c-0.1,0-0.2-0.1-0.3-0.1c-0.3,0-0.6,0-1.1,0c0.3-0.1,0.4-0.1,0.6-0.2c0.1-0.2,0.1-0.3-0.1-0.5
	c-0.1-0.1-0.3-0.2-0.5-0.2c-0.1,0-0.3,0-0.4,0c-0.1,0-0.2-0.1-0.5-0.2c0.3,0,0.5,0,0.7,0c0.3,0,0.3-0.1,0.2-0.4
	c-0.2-0.1-0.5-0.1-0.7,0.1v0c0,0,0,0,0,0c-0.2,0-0.4,0-0.5-0.2c0.2,0,0.3,0.1,0.5,0.2h0c0-0.1-0.1-0.2,0-0.4
	c0.1-0.3,0.3-0.4,0.5-0.3c0.4,0.1,0.8,0.2,1.2,0.3c-0.2,0.2-0.4,0.4-0.6,0.6c0.3,0.2,0.5,0.2,0.8,0.2c0.5,0,1-0.1,1.5-0.1
	c0.2,0,0.4-0.1,0.4-0.3c0-0.1,0-0.2,0.1-0.3c0,0,0.1-0.1,0.1-0.1l-4.1-0.7c-0.1,0.1-0.3,0.1-0.5,0.2c-0.1,0-0.3,0-0.4-0.2
	c0.1,0,0.2,0,0.4,0l-1-0.2c0,0.1,0,0.1,0.1,0.1c0.1,0.1-0.1,0.3-0.3,0.3c-0.2,0-0.3-0.1-0.3-0.2c0-0.1,0-0.2,0-0.3l-1.2-0.2
	l-6.3-0.8l-5.5,2.1h0l-2.4,0.9c-0.1,0.1-0.1,0.1-0.2,0.2c0,0-0.1,0-0.1,0l-3.6,1.3l-0.5,0.2c0.2,0.1,0.3,0.2,0.5,0.2h0c0,0,0,0,0,0
	c0,0,0,0,0.1,0c0,0-0.1,0-0.1,0c0,0,0,0,0,0c0,0.2-0.2,0.3-0.3,0.2c-0.2-0.1-0.4,0-0.4-0.1c0-0.1,0-0.1-0.1-0.2l-0.4,0.2
	c0,0,0,0.1,0,0.1c-0.1,0-0.1,0-0.2,0l-0.6,0.3c0,0,0,0.1,0,0.1c0.3,0,0.6,0,0.9,0c0.1,0.4-0.4,0.2-0.4,0.4c0,0,0.1,0.1,0.1,0.1
	c0.3,0.1,0.6,0.1,0.9,0.1c0.1,0,0.1,0.1,0.1,0.1c0,0.1,0,0.1-0.1,0.2c-0.1,0-0.3,0.1-0.4,0.1c-0.5-0.1-0.4-0.1-0.6,0.2
	c0,0.1-0.1,0.1-0.1,0.2c-0.1,0-0.2,0-0.2,0c-0.4-0.1-0.7-0.1-1.1,0c-0.6,0.2-1.1,0.1-1.6-0.2c-0.1,0-0.1-0.1-0.1-0.2l-1.7,0.9
	c0,0,0,0,0,0c-0.1,0.1-0.3,0.3-0.5,0.5c0.3,0.1,0.5,0.1,0.8,0.2c0,0.1,0.1,0.2,0.1,0.3c-0.2,0.1-0.4,0.2-0.7,0.3
	c-0.2-0.2-0.4-0.3-0.6-0.5h0c0,0.2-0.1,0.4,0.1,0.5c0,0,0,0.2,0,0.3c0.2,0,0.4,0,0.6,0c0.2,0,0.3,0.2,0.5,0.3
	c-0.1,0.2-0.3,0.4-0.4,0.6v0c0.1,0,0.1,0,0.2,0c0,0,0.1,0.1,0.1,0.2c-0.1,0-0.2,0-0.2,0c0,0-0.1-0.1-0.1-0.2c0,0,0,0,0,0
	c0,0,0,0,0,0c-0.1,0-0.1,0-0.3,0c0-0.2-0.1-0.3-0.1-0.5c-0.3,0.1-0.5,0.2-0.7,0.3c-0.3-0.1-0.6-0.4-1-0.4c0,0,0,0-0.1,0l-1.1,1
	c0,0,0,0,0.1,0c-0.1,0.1-0.2,0.2-0.3,0.2c0,0,0,0-0.1,0l-0.2,0.2c0.1,0,0.1,0.2,0.1,0.3h0h0c0,0,0,0,0,0l0.2,0.1c0,0,0,0-0.1,0
	c-0.1,0-0.1-0.1-0.2-0.1c0,0,0,0,0,0c0,0,0,0,0,0c-0.1,0-0.2,0-0.3,0l-1,1c0,0,0.1,0,0.1,0c0,0-0.1,0.1-0.1,0.1s-0.1,0-0.1,0
	l-3.7,3.5c0,0,0.1,0,0.1,0c0,0.1-0.1,0.1-0.1,0.1c0,0-0.1-0.1-0.1-0.1l-12.6,12l-6.2,1.1l-6.2,4.1l-19.7,16.4l-3.7,2.8l-32.2,23.6
	h239.1L230.2,116.2z M145.2,64.1C145.2,64.1,145.2,64.1,145.2,64.1C145.2,64.1,145.2,64,145.2,64.1C145.2,64,145.2,64,145.2,64.1
	C145.3,64.1,145.3,64.1,145.2,64.1z M142.3,63.5c0.1,0,0.2,0,0.2,0.1c0,0.1-0.1,0.1-0.1,0.1c-0.1,0-0.2,0-0.5-0.1
	C142.1,63.5,142.2,63.5,142.3,63.5z M117.8,67.1C117.8,67.1,117.7,67.1,117.8,67.1c0-0.1,0-0.1,0-0.1C117.8,67,117.9,67,117.8,67.1
	C117.9,67.1,117.8,67.1,117.8,67.1L117.8,67.1z M33.1,136c0,0-0.1,0-0.1,0c0,0,0-0.1,0.1-0.1C33,135.8,33.1,135.9,33.1,136
	C33.1,135.9,33.1,136,33.1,136L33.1,136z M33.7,132.4C33.7,132.4,33.7,132.4,33.7,132.4C33.7,132.4,33.7,132.4,33.7,132.4
	C33.7,132.4,33.7,132.4,33.7,132.4z M38.5,135.6c0,0-0.1,0-0.1-0.1c0,0,0.1-0.1,0.1,0c0,0,0.1,0,0.1,0.1
	C38.6,135.5,38.6,135.6,38.5,135.6L38.5,135.6z M53.9,136L53.9,136L53.9,136L53.9,136z M54.5,136.1c-0.1,0-0.1-0.1-0.1-0.1
	c0.1,0,0.1,0,0.2-0.1c0,0,0.1,0.1,0.1,0.1C54.6,136,54.6,136.1,54.5,136.1z M56,134.9C55.9,134.9,55.9,134.9,56,134.9
	C55.9,134.9,55.9,134.9,56,134.9c-0.1,0-0.1,0-0.1,0c-0.1,0-0.1-0.1-0.1-0.1c0,0,0.1,0,0.1,0C55.9,134.7,55.9,134.8,56,134.9
	C55.9,134.9,55.9,134.9,56,134.9C55.9,134.9,55.9,134.9,56,134.9l0.2,0v0.1C56.1,134.9,56,134.9,56,134.9L56,134.9z M56.4,136
	C56.3,136,56.3,136,56.4,136C56.3,136,56.3,135.9,56.4,136C56.4,135.9,56.4,136,56.4,136C56.4,136,56.4,136,56.4,136L56.4,136z
	 M56.7,136C56.7,136,56.7,136,56.7,136C56.7,136,56.7,136,56.7,136C56.7,136,56.7,136,56.7,136C56.8,136,56.7,136,56.7,136z
	 M206,107.3C206,107.3,205.9,107.3,206,107.3c-0.1,0-0.1,0-0.1,0C205.9,107.3,205.9,107.3,206,107.3L206,107.3z M189.1,88.2
	c-0.1-0.2-0.2-0.4-0.3-0.6C189.3,87.6,189.3,87.6,189.1,88.2z M187.7,86.1c0,0,0.1,0,0.1,0c0,0-0.1,0.1-0.1,0.1
	C187.7,86.2,187.7,86.2,187.7,86.1C187.7,86.2,187.7,86.1,187.7,86.1z M187.5,86.8c0.1,0.2,0.2,0.2,0.2,0.2c0,0.1,0,0.3-0.1,0.4
	c0,0-0.1,0-0.1,0C187.5,87.3,187.5,87.1,187.5,86.8L187.5,86.8z M186.3,86.5c0.1,0,0.1,0.1,0.2,0.1c0,0-0.1,0.1-0.2,0.2
	c-0.1-0.1-0.1-0.1-0.2-0.2C186.2,86.6,186.3,86.5,186.3,86.5L186.3,86.5z M182.6,84.2c0,0,0,0.1,0,0.1c0,0,0,0-0.1,0s-0.1,0,0,0
	C182.5,84.3,182.6,84.3,182.6,84.2L182.6,84.2z M180.4,80.6c-0.5,0.2-0.7,0-1,0C179.7,80.3,179.9,80.5,180.4,80.6z M183.6,90.3
	l3.2,4.4l6.2,3.6l7.4,7.1l-15.2-4.7l-2.4-7.3l-6-6.4l-3.5-7L183.6,90.3z M159.1,75.4l4.8-3.7l1.4,4.5l4.3,4.8l0,0c0,0,0,0,0.1,0
	c0,0,0,0.1,0,0.1c0,0,0,0,0,0l4.6,7.2l4.1,6.3l-12.8-7.2l-7.4-2.6h0.3l0-0.1v0c0,0,0,0,0,0l0-0.3c0-0.2,0.1-0.4,0.1-0.6l0.3-1.2
	c0.2-0.7,0.4-1.5,0.5-2.2l3.9-3.8l-5.1,2.8l-0.2,0.1l-0.1,0.3c-0.4,0.8-0.7,1.5-1,2.3l-0.5,1.2c-0.1,0.2-0.2,0.4-0.2,0.6l0,0.1
	l-1.9-0.7l3.3-5.7L159.1,75.4z M157.6,67.1C157.6,67.1,157.6,67.2,157.6,67.1C157.6,67.2,157.5,67.2,157.6,67.1
	C157.5,67.2,157.5,67.1,157.6,67.1C157.5,67.1,157.5,67.1,157.6,67.1L157.6,67.1z M153.6,72.6C153.6,72.6,153.6,72.6,153.6,72.6
	c0,0.1-0.1,0.1-0.1,0.1c0,0,0,0,0,0C153.5,72.6,153.5,72.6,153.6,72.6L153.6,72.6z M153.3,69.1c0,0,0,0.1,0,0.1c0,0,0,0-0.1,0
	C153.3,69.2,153.3,69.2,153.3,69.1C153.3,69.1,153.3,69.1,153.3,69.1z M150.8,66.7c0,0,0,0.1,0,0.1c-0.1,0-0.2,0-0.3,0
	c0,0,0-0.1,0-0.1C150.5,66.7,150.6,66.7,150.8,66.7L150.8,66.7z M147.9,65.2c0.1-0.1,0.3-0.3,0.5-0.2c0.1,0,0.1,0.2,0.2,0.4
	c-0.3,0-0.5,0-0.7,0C147.8,65.3,147.8,65.3,147.9,65.2z M148,66L148,66c0,0.1,0,0.1-0.1,0.2c0-0.1-0.1-0.1-0.1-0.1
	C147.9,66.1,147.9,66,148,66z M147.7,66.8c0.2,0,0.5,0.1,0.7,0c0.2-0.2,0.4,0.1,0.7,0c0-0.1,0-0.2,0.1-0.4c0,0,0,0,0,0c0,0,0,0,0,0
	c-0.1,0-0.3,0-0.4,0c0,0,0,0,0,0v0c-0.1,0-0.1-0.1-0.2-0.1c0,0,0-0.1,0-0.1c0,0,0,0,0,0c0,0,0.1,0.1,0.1,0.1c0,0.1,0,0.1,0,0.2h0
	c0.1-0.1,0.3-0.1,0.4,0h0v0c0.1,0,0.2,0.1,0.2,0.1c0,0.2,0,0.4,0,0.5c-0.3,0-0.6,0.1-0.9,0.2c-0.2,0.1-0.5,0.2-0.8,0.4
	c0-0.3-0.1-0.5-0.1-0.7C147.6,66.9,147.7,66.8,147.7,66.8L147.7,66.8z M149.5,69.6c-0.1,0-0.1,0.1-0.1,0.1c-0.1,0-0.1,0-0.2-0.1
	c0,0,0,0,0.1,0C149.3,69.6,149.4,69.6,149.5,69.6z M147.8,67.9c0,0-0.1,0.1-0.1,0.1c0,0,0,0-0.1-0.1c0,0,0,0,0,0
	C147.7,67.9,147.8,67.9,147.8,67.9L147.8,67.9z M147.1,67c0,0.1,0,0.2-0.1,0.3c-0.2,0-0.4,0-0.5-0.1C146.7,67.1,146.8,66.9,147.1,67
	z M147,67.9c0,0-0.1,0.1-0.1,0.1s-0.1,0-0.1-0.1c0,0,0.1-0.1,0.1-0.1S146.9,67.9,147,67.9z M144.3,65.5
	C144.3,65.5,144.4,65.5,144.3,65.5c0,0.1,0,0.1,0,0.1C144.3,65.6,144.2,65.5,144.3,65.5C144.3,65.5,144.3,65.5,144.3,65.5
	L144.3,65.5z M144.2,66.1c0.4,0.2,0.6,0,0.9-0.1c0.2,0.1,0.5,0.2,0.8,0.3c-0.8,0.3-1.4,0.2-2.2,0C144,66.2,144.2,66,144.2,66.1
	L144.2,66.1z M141.3,67.4L141.3,67.4L141.3,67.4L141.3,67.4z M141,65.8c0,0,0,0.1,0.1,0.1c0,0-0.1,0-0.1,0C141,66,141,65.9,141,65.8
	C141,65.9,141,65.9,141,65.8L141,65.8z M140.7,69L140.7,69L140.7,69L140.7,69z M138.5,63.4c0,0,0.1,0,0.1,0.1
	C138.6,63.5,138.5,63.5,138.5,63.4C138.5,63.5,138.5,63.5,138.5,63.4C138.5,63.4,138.5,63.4,138.5,63.4z M138.1,65.8
	c0.1,0,0.3,0,0.4,0c0,0,0.1,0.1,0.1,0.1c0,0-0.1,0.1-0.1,0.1C138.4,65.9,138.3,65.9,138.1,65.8C138.1,65.8,138.1,65.8,138.1,65.8
	L138.1,65.8z M138.2,66.7c0,0-0.1,0.1-0.1,0.2c-0.1,0-0.1,0-0.1-0.1c0,0,0.1-0.1,0.1-0.1C138.1,66.6,138.1,66.7,138.2,66.7z
	 M137.9,65.2c0,0,0.1,0,0.1,0C137.9,65.3,137.9,65.3,137.9,65.2C137.8,65.3,137.8,65.3,137.9,65.2C137.8,65.2,137.8,65.2,137.9,65.2
	z M136.5,62.7C136.5,62.7,136.6,62.7,136.5,62.7c0,0.1,0,0.1,0,0.2C136.5,62.8,136.5,62.8,136.5,62.7
	C136.4,62.7,136.5,62.7,136.5,62.7L136.5,62.7z M146.6,70l5.5,4.2c0,0,0,0,0,0c0,0,0.1,0,0.1,0c0,0,0,0,0,0l2.5,1.9l-8.3,2.4
	l7.8,13.2l-12.8-11l-8.7-12.4L146.6,70z M153.5,78.6c0,0-0.1,0.1-0.1,0.1c0,0-0.1-0.1-0.1-0.1C153.3,78.6,153.4,78.5,153.5,78.6
	C153.4,78.5,153.5,78.6,153.5,78.6L153.5,78.6z M130,62.6c0,0-0.1,0-0.1,0c0,0,0-0.1,0-0.1C129.9,62.5,129.9,62.4,130,62.6
	C130,62.5,130,62.5,130,62.6L130,62.6z M129.8,61.8C129.9,61.8,129.9,61.8,129.8,61.8c0.1,0.1,0.1,0.2,0.1,0.3c0,0-0.1,0-0.1,0
	c0-0.1-0.1-0.2-0.1-0.2C129.7,61.9,129.8,61.8,129.8,61.8z M127,62.7C127,62.7,127,62.8,127,62.7C126.9,62.8,126.9,62.7,127,62.7
	C126.9,62.7,127,62.7,127,62.7L127,62.7z M124.9,69.9c0.1,0,0.1,0.1,0.2,0.1c-0.1,0-0.2,0.1-0.2,0.1c-0.1,0-0.1-0.1-0.1-0.2
	C124.8,70,124.8,69.9,124.9,69.9L124.9,69.9z M123.6,64c0,0,0.1,0.1,0.1,0.1c-0.1,0-0.1,0.1-0.2,0.1c0,0-0.1-0.1-0.1-0.1
	C123.5,64,123.6,64,123.6,64z M123,64.9c0.1,0,0.2,0,0.4,0c0.1,0,0.1,0,0.4,0.1c-0.4,0-0.6,0-0.8,0C123,65,123,64.9,123,64.9
	L123,64.9z M123.5,68.4c0,0-0.1,0.1-0.1,0c-0.1,0-0.1-0.1-0.2-0.1c0,0,0.1-0.1,0.1-0.1C123.4,68.3,123.4,68.3,123.5,68.4z
	 M122.8,64.3c0,0,0.1,0,0.1,0.1c0,0,0,0,0,0.1C122.9,64.4,122.8,64.4,122.8,64.3C122.8,64.3,122.8,64.3,122.8,64.3z M122,65.1
	C122,65.1,122,65.1,122,65.1c0,0.1-0.1,0.1-0.1,0.1c0,0,0,0,0,0C121.9,65.1,121.9,65.1,122,65.1z M121.3,66.4
	c-0.2,0.1-0.4,0.2-0.6,0.1c0,0-0.1-0.1-0.1-0.1c0,0,0-0.1,0.1-0.1C120.9,66.3,121.1,66.4,121.3,66.4L121.3,66.4z M120.9,65.7
	c0,0-0.1,0-0.1,0c0-0.1,0-0.1-0.1-0.2l0.1,0C120.8,65.6,120.8,65.6,120.9,65.7L120.9,65.7z M120.7,64.9V65c0,0-0.1,0-0.1,0
	c0,0,0,0,0-0.1H120.7z M119.2,66c0-0.3,0.2-0.4,0.5-0.5c0.5-0.2,0.8,0,0.9,0.7c-0.3-0.1-0.5-0.2-0.8-0.2c-0.1,0.1-0.3,0.3-0.5,0.5
	c0,0-0.1-0.1-0.2-0.1C119,66.1,119.2,66.1,119.2,66L119.2,66z M120.1,67.1c0,0,0,0.1,0,0.1C120.1,67.1,120,67.1,120.1,67.1
	C120,67.1,120.1,67.1,120.1,67.1C120.1,67.1,120.1,67.1,120.1,67.1z M118.9,66.8c0.2,0,0.4,0,0.5,0c-0.1,0.1-0.2,0.2-0.2,0.2
	c0.1,0.2-0.1,0.2-0.2,0.2s-0.2-0.1-0.2-0.2C118.9,67,118.9,66.9,118.9,66.8L118.9,66.8z M114.5,70.7c0.6-0.1,1.1-0.2,1.4-0.6
	c0.3,0,0.5,0.1,0.7,0.1c0.1,0,0.2-0.2,0.3-0.2c-0.5-0.4-0.5-0.4-1-0.2c0,0,0,0,0,0c-0.2,0-0.4,0-0.5,0.1c-0.3,0.3-0.6,0-0.9,0.1
	c-0.3,0-0.4-0.2-0.6-0.3c0.1-0.4,0.2-0.8,0.4-1.2c0.2,0,0.5,0.1,0.7,0.2c0.1,0.4-0.6,0.5-0.5,0.9c0.5,0.1,1,0.1,1.5,0.2h0
	c0-0.1,0-0.2,0-0.2c0.4-0.2,0.5-0.5,0.6-0.9c0,0,0,0,0,0c0,0,0,0,0,0c0,0-0.1,0-0.1,0c0,0-0.1,0-0.1,0h0.1h0.1c0,0,0,0,0,0v0
	c0.5-0.1,1-0.3,1.5-0.5c0-0.1,0.1-0.3,0.2-0.5c0.2,0,0.4,0,0.5,0.2c0,0,0,0,0,0c0,0,0,0,0,0c0.2-0.1,0.3-0.4,0.6-0.3
	c0.4,0.1,0.9-0.1,1.3,0.2c0.2-0.1,0.4-0.2,0.6-0.4c0.2-0.1,0.3-0.4,0.6-0.3c0.1,0.2-0.1,0.2-0.1,0.3c0,0.1-0.1,0.2-0.1,0.3
	c0.2,0.2,0.4,0.3,0.7,0.3c0.1,0,0.3,0,0.2,0.2c-0.2,0.1-0.4,0.2-0.7,0.2c-0.1,0-0.3-0.1-0.5-0.1c0,0.1-0.1,0.2-0.1,0.2
	c0-0.1,0-0.2,0-0.2c-0.1,0-0.3,0-0.4,0.1c-0.2,0.3-0.6,0.3-1,0.3c0-0.2,0-0.4,0-0.6c-0.1,0-0.2,0.1-0.3,0.1v0h0c0,0,0,0,0,0
	c0,0.1,0,0.1,0.1,0.2c-0.1,0-0.3,0.1-0.4,0.1c-0.5-0.1-0.9,0.2-1.4,0.1c-0.3,0.2-0.7,0.4-0.9,0.8c0.1,0.2,0.2,0.2,0.4,0.2
	c0.2,0,0.2-0.1,0.3-0.2c0.1-0.1,0.3-0.2,0.5-0.3c0.1,0.3,0.1,0.5,0.2,0.7c0,0,0,0,0.1,0c0,0,0,0,0,0c0,0,0,0,0,0
	c0.1-0.1,0.1-0.3,0.2-0.3c0.3-0.1,0.1-0.3,0.1-0.5c0.4-0.2,0.7,0.3,1.1,0.2c-0.1,0.1-0.1,0.1-0.2,0.2c-0.1,0.1-0.3,0.1-0.4,0.2
	c-0.1,0.4-0.2,0.7-0.4,1c-0.2,0.2-0.4-0.1-0.5,0c-0.2,0-0.3,0.1-0.5,0.2c-0.2-0.2,0-0.4,0-0.5c0.1,0.1,0.3,0.2,0.4,0.1
	c0.1,0,0.3-0.2,0.3-0.3s-0.1-0.2-0.2-0.4c0,0,0,0,0,0c-0.1,0.1-0.2,0.2-0.5,0.2c-0.3-0.1-0.6,0-0.9-0.1c0,0.3,0,0.5-0.4,0.6
	c0,0.2-0.1,0.4-0.1,0.6s0,0.4,0,0.6c-0.6,0.1-1.1,0-1.6-0.2v0c0,0,0,0,0,0c0.1,0.3,0,0.3-0.3,0.4v0c0,0,0,0,0,0v0.5
	c-0.3,0.1-0.4,0-0.5-0.2c-0.1-0.3-0.3-0.6-0.5-0.8c0,0,0,0,0,0c0,0,0,0,0,0.1c0,0-0.1,0-0.1,0c0,0,0-0.1,0.1-0.1c0,0,0,0,0,0
	c0,0,0,0,0,0c-0.1-0.1-0.1-0.1-0.1-0.2C114.1,71.3,114.5,71.1,114.5,70.7L114.5,70.7z M113.9,71C113.9,71,114,71,113.9,71
	C114,71,114,71,113.9,71C114,71.1,113.9,71.1,113.9,71C113.9,71.1,113.9,71,113.9,71z M114,70.4C114,70.4,114.1,70.4,114,70.4
	C114.1,70.4,114.1,70.4,114,70.4C114.1,70.4,114.1,70.5,114,70.4C114.1,70.5,114.1,70.5,114,70.4L114,70.4z M120,69.9
	C120,69.9,120,69.9,120,69.9C120,69.8,120,69.8,120,69.9c0-0.1,0.1,0,0.1,0C120.1,69.9,120,69.9,120,69.9L120,69.9z M120.5,70.8
	c0,0,0,0.1,0,0.1s-0.1,0-0.1,0c-0.2,0-0.3-0.2-0.3-0.4C120.2,70.5,120.4,70.6,120.5,70.8z M117.5,73.2c-0.1,0-0.2,0-0.2,0
	c-0.1-0.1-0.1-0.2,0-0.2c0.1,0,0.1,0,0.2,0c0.1,0,0.1,0,0.2,0c0,0,0,0,0,0c-0.1,0-0.1,0-0.2-0.1C117.6,73.1,117.6,73.2,117.5,73.2
	L117.5,73.2z M117.6,72.5c0-0.1-0.1-0.1-0.1-0.2s0.1-0.1,0.1-0.1c0,0,0.1,0.1,0.2,0.1C117.7,72.4,117.6,72.5,117.6,72.5z
	 M117.3,71.8c0.2-0.1,0.2-0.1,0.6-0.1C117.7,71.9,117.5,71.8,117.3,71.8z M116.6,72.5c-0.2,0-0.4,0-0.7-0.1c0-0.1,0.1-0.2,0.1-0.3
	c0.2,0,0.3,0.1,0.4,0.1c0.1,0,0.3,0,0.5,0C116.7,72.3,116.7,72.4,116.6,72.5L116.6,72.5z M116.8,73C116.8,73,116.8,73,116.8,73
	c-0.1,0-0.2,0-0.2,0c0,0,0.1,0,0.1,0C116.8,72.9,116.8,73,116.8,73z M115.7,74c0.5-0.2,0.5-0.2,0.7,0C116.2,74.1,116,74.2,115.7,74z
	 M116.2,74.7c-0.1,0-0.2,0.1-0.3,0.1c0,0-0.1-0.1-0.2-0.2c0.1,0,0.2,0,0.3,0C116.2,74.5,116.2,74.6,116.2,74.7L116.2,74.7z
	 M114.7,73.4c-0.1,0-0.2-0.1-0.4-0.3c0.3-0.1,0.5-0.1,0.8-0.2c0.1-0.2,0.1-0.3,0.2-0.5c0.1,0,0.2,0.1,0.1,0.1c0,0.2,0,0.4-0.1,0.5
	C115.1,73.3,114.9,73.4,114.7,73.4z M115.2,74.1c0,0-0.1,0.2-0.2,0.4c-0.1-0.1-0.2-0.2-0.2-0.3c0,0,0-0.1,0-0.1
	C114.9,73.9,115.1,73.9,115.2,74.1L115.2,74.1z M114.2,76.6c-0.1,0-0.1,0-0.1,0c0,0-0.1,0-0.1-0.1c0,0,0.1-0.1,0.1-0.1
	C114.1,76.6,114.2,76.6,114.2,76.6L114.2,76.6z M113.8,73.1C113.8,73.1,113.8,73.2,113.8,73.1c0,0.1-0.1,0.1-0.1,0c0,0,0,0,0-0.1
	C113.7,73.1,113.7,73.1,113.8,73.1L113.8,73.1z M113.1,70.6c0.2,0.2,0.3,0.3,0.5,0.6c-0.4-0.1-0.6-0.2-0.8-0.4
	C113,70.7,113,70.6,113.1,70.6z M113.6,75.4c0.1,0.2,0,0.4-0.2,0.6c-0.2,0-0.4-0.1-0.6-0.1c0-0.1-0.1-0.1-0.1-0.1
	C113,75.6,113.2,75.3,113.6,75.4z M112.5,78.6L112.5,78.6L112.5,78.6L112.5,78.6z M112.1,71.9c0.1,0,0.1,0,0.1,0
	c0,0-0.1,0.1-0.1,0.1C112.1,72,112.1,71.9,112.1,71.9C112.1,71.9,112.1,71.9,112.1,71.9L112.1,71.9z M111.8,77.6
	c0.1,0,0.1,0.1,0.2,0.1c0,0-0.1,0-0.2,0.1c-0.1,0-0.1-0.1-0.2-0.1C111.7,77.7,111.7,77.6,111.8,77.6z M111.9,78.4c0.1,0,0.1,0,0.2,0
	c0,0-0.1,0.1-0.1,0.1c-0.1,0-0.1,0-0.4,0C111.8,78.4,111.8,78.4,111.9,78.4L111.9,78.4z M111.1,82C111.1,82,111,82.1,111.1,82
	c-0.1,0.1-0.2,0-0.2,0c0,0,0.1-0.1,0.1-0.1C111,82,111,82,111.1,82L111.1,82z M110.9,80.7c-0.4,0.2-0.9,0.2-1.4-0.1
	c0.6-0.1,1-0.1,1.6-0.2C110.9,80.6,110.9,80.7,110.9,80.7z M109.8,79.5c0.2-0.1,0.4-0.3,0.6-0.4c0.1,0.2,0.1,0.4,0.2,0.6
	c-0.1,0.3-0.3,0.5-0.8,0.4c-0.1-0.4,0.3-0.2,0.5-0.4C110.1,79.6,110,79.6,109.8,79.5L109.8,79.5z M109.9,78.9c0,0-0.1,0-0.1-0.1
	c0,0,0-0.1,0.1-0.1c0.1,0,0.1,0,0.1,0C109.9,78.8,109.9,78.8,109.9,78.9z M110.9,79.3C110.9,79.3,110.9,79.3,110.9,79.3
	c0.1,0,0.1,0,0.1,0C111,79.4,111,79.4,110.9,79.3C110.9,79.4,110.9,79.3,110.9,79.3z M111,77.9c0,0.1-0.4,0.4-0.6,0.4s-0.4,0-0.5,0
	v0h0c0,0.1,0,0.2,0.1,0.2c-0.1,0-0.2,0.1-0.3,0c-0.1,0-0.1-0.1-0.1-0.1c0,0,0-0.1,0.1-0.1c0.1,0,0.2,0,0.3,0c0,0,0,0,0,0h0
	c0-0.1,0.1-0.1,0.2-0.1c0.5-0.1,0.5-0.1,0.2-0.6c-0.2,0-0.5,0-0.8,0c-0.1,0-0.1-0.1-0.2-0.1c0,0,0,0,0-0.1c0,0,0-0.1,0.1-0.1
	c0,0,0.1,0,0.1,0c0.5,0.2,0.8,0,1.1-0.3C111.2,77,110.9,77.5,111,77.9L111,77.9z M109.3,78c0,0-0.1-0.1,0-0.1c0,0,0.1,0,0.1,0
	c0,0,0.1,0.1,0.1,0.1C109.4,77.9,109.4,78,109.3,78L109.3,78z M110.5,75.2L110.5,75.2L110.5,75.2L110.5,75.2z M110.6,74.9
	c0,0,0-0.1,0-0.1c0,0,0.1,0,0.1-0.1c0,0,0,0.1,0.1,0.1C110.8,74.9,110.7,74.9,110.6,74.9L110.6,74.9z M109.8,73.9
	c0.1-0.2,0.1-0.2,0.5-0.2c0.1-0.1,0.1-0.2,0.2-0.3c0.1,0.1,0.2,0.2,0.2,0.3C110.5,74,110.2,73.8,109.8,73.9z M110.6,73.3
	c0,0-0.1,0-0.2,0.1c0-0.1,0-0.1,0-0.2c0,0,0.1,0,0.1-0.1C110.5,73.2,110.6,73.2,110.6,73.3z M109.8,72.8c0.2-0.3,0.2-0.3,0.7-0.2
	C110.2,72.8,110.1,73,109.8,72.8z M110.1,71.3c0,0,0.1,0,0.1,0.1c0,0-0.1,0-0.1,0s-0.1,0-0.1-0.1C110,71.3,110.1,71.3,110.1,71.3z
	 M109.6,71.9c0.1,0,0.1,0.1,0.2,0.1c0,0,0,0,0.1,0.1c-0.2,0-0.3,0-0.4,0s-0.2-0.1-0.2-0.1C109.2,71.9,109.4,71.8,109.6,71.9
	L109.6,71.9z M109.3,75.4c0,0-0.1,0.1-0.1,0.1c0,0-0.1-0.1-0.1-0.1C109.2,75.4,109.2,75.4,109.3,75.4
	C109.3,75.4,109.3,75.4,109.3,75.4z M109.2,72.5C109.2,72.5,109.2,72.5,109.2,72.5C109.2,72.6,109.2,72.6,109.2,72.5
	C109.2,72.6,109.2,72.5,109.2,72.5C109.2,72.5,109.2,72.5,109.2,72.5L109.2,72.5z M109.1,80.7C109.1,80.7,109.1,80.7,109.1,80.7
	C109.1,80.7,109,80.7,109.1,80.7C109,80.7,109,80.7,109.1,80.7C109,80.7,109,80.7,109.1,80.7z M108.8,75.9c0,0,0.1,0,0.1,0.1
	c0,0-0.1,0-0.1,0s-0.1,0-0.1-0.1C108.7,75.9,108.8,75.9,108.8,75.9z M107.9,75.9L107.9,75.9L107.9,75.9L107.9,75.9z M107.8,77.2
	C107.8,77.2,107.9,77.3,107.8,77.2c0,0.1,0,0.1-0.1,0.1c0,0,0,0-0.1,0C107.8,77.3,107.8,77.2,107.8,77.2L107.8,77.2z M107.1,76.7
	L107.1,76.7L107.1,76.7L107.1,76.7z M107,82.5c0,0,0.1,0.1,0.1,0.2s-0.1,0.1-0.2,0.2c0-0.1-0.1-0.2-0.1-0.2
	C106.9,82.6,106.9,82.6,107,82.5z M106.6,75.9c-0.4,0.1-0.6,0.1-0.9,0.2C106,75.9,106,75.9,106.6,75.9z M106.2,76.5
	c0,0.1-0.1,0.2-0.1,0.3c-0.1-0.1-0.2-0.1-0.2-0.1c-0.1-0.1,0-0.2,0.2-0.2C106.1,76.4,106.2,76.4,106.2,76.5L106.2,76.5z M103.9,77.1
	c0.6,0.1,0.9,0.2,1.7,0c0.3-0.1,0.6,0,0.8,0.1c0.1,0.2-0.1,0.4-0.3,0.4c-0.1,0-0.2-0.1-0.4-0.1v0c0,0,0,0,0,0c0,0,0,0,0,0
	c0,0.1,0.1,0.2,0.1,0.4c-0.3-0.2-0.3-0.2-0.1-0.4c0,0,0,0,0,0c-0.4-0.1-0.8-0.1-1.2,0c-0.2,0-0.4,0-0.6,0
	C103.8,77.4,103.8,77.2,103.9,77.1z M104.4,78L104.4,78L104.4,78L104.4,78z M96.5,88.2c0,0,0.1,0.1,0,0.1c0,0-0.1,0-0.1,0
	c0,0-0.1,0-0.1-0.1C96.4,88.2,96.4,88.2,96.5,88.2z M83.8,95c0,0,0.1-0.1,0.1-0.1C83.9,95,84,95,84,95.1c0,0-0.1,0.1-0.1,0.1
	C83.9,95.2,83.8,95.1,83.8,95L83.8,95z M83.8,96.7c0,0-0.1,0-0.1,0.1c0,0-0.1,0-0.1,0c0,0,0-0.1,0.1-0.1
	C83.7,96.7,83.8,96.7,83.8,96.7L83.8,96.7z M83.7,94.2c0.1,0,0.1,0,0.2,0.1c-0.1,0.1-0.1,0.1-0.2,0.2c-0.1,0-0.1,0-0.1-0.1
	C83.5,94.2,83.6,94.2,83.7,94.2z M82.7,95.1C82.7,95.1,82.7,95.1,82.7,95.1C82.7,95.1,82.7,95.1,82.7,95.1
	C82.7,95.1,82.7,95.1,82.7,95.1C82.7,95.1,82.7,95.1,82.7,95.1L82.7,95.1z M82.5,94.5C82.5,94.5,82.5,94.5,82.5,94.5
	C82.5,94.5,82.4,94.6,82.5,94.5C82.4,94.6,82.4,94.5,82.5,94.5C82.4,94.5,82.4,94.5,82.5,94.5z M82.5,101.9L82.5,101.9L82.5,101.9
	L82.5,101.9z M81.6,93.3c0.1,0,0.1,0,0.1,0c0,0,0,0,0,0.1C81.7,93.4,81.6,93.4,81.6,93.3C81.6,93.3,81.6,93.3,81.6,93.3L81.6,93.3z
	 M81.5,92.7C81.5,92.7,81.5,92.8,81.5,92.7C81.5,92.7,81.5,92.7,81.5,92.7C81.5,92.7,81.5,92.7,81.5,92.7L81.5,92.7z M81.3,97.7
	c0,0,0.1,0,0.1,0C81.4,97.8,81.3,97.8,81.3,97.7C81.3,97.8,81.3,97.8,81.3,97.7C81.3,97.8,81.3,97.7,81.3,97.7z M66.8,124.8
	C66.8,124.8,66.8,124.8,66.8,124.8C66.8,124.8,66.8,124.9,66.8,124.8C66.8,124.9,66.8,124.8,66.8,124.8
	C66.7,124.8,66.7,124.8,66.8,124.8z M65,112.3c-0.1-0.1-0.2-0.2-0.2-0.4c0.2,0,0.4-0.1,0.6-0.1C65.3,112.1,65.3,112.1,65,112.3
	L65,112.3z M69.9,120.2c0,0.1,0,0.2,0,0.3c0.2,0.2,0.3,0.5,0.5,0.6c0.4,0.4,0.7,0.8,1,1.2c0.1,0.1,0.1,0.1,0.2,0.2
	c0.1,0,0.1,0.1,0.1,0.1c0.8,0.5,1.2,1.2,1.8,1.7c0.4,0.3,0.7,0.7,0.8,1.1c0,0.2,0,0.5,0.1,0.7c0.1,0.2,0.2,0.3,0.2,0.5
	c0.1,0.3,0,0.6-0.2,0.9c0,0.6-0.1,1.1-0.5,1.6c-1.2,1.6-3.4,1.5-5.5,1c-0.7-0.2-1.5-0.5-1.8-1c0,0,0.1,0,0.1,0
	c-0.1-0.1-0.2-0.2-0.3-0.2c-0.2-0.1-0.2-0.3-0.1-0.5c0-0.1,0-0.3,0-0.5c0,0,0,0,0,0c0.4-0.1,0.8-0.2,1.2-0.4
	c0.2,0.3,0.3,0.5,0.5,0.8c0,0,0,0.1,0.1,0.1c0.1,0.1,0.1,0.1,0.2,0.2c0.5,0.8,1.7,1.1,2.6,0.6c0.6-0.3,0.9-0.9,0.9-1.5
	c0.2-0.9-0.3-2.1-0.6-2.8c0,0,0,0,0,0c-0.4-0.3-0.9-0.6-1.3-1c0,0,0,0,0-0.1c-1.2-0.9-1.9-2.1-2.2-3.5c-0.1-0.3,0-0.7,0-0.9
	c0-0.5,0.1-1,0.5-1.4c0.4-0.6,1.1-1,2.4-1c1.5,0,3.7,0.2,4.3,1.4c0,0,0,0,0,0.1c0.1,0,0.1,0.1,0.2,0.1c-0.5,0.4-1,0.7-1.5,1.1
	c-0.1-0.1-0.2-0.2-0.3-0.4c0,0,0-0.1-0.1-0.1c-0.6-0.7-1.7-1.5-2.6-0.8C70.1,118.8,69.5,119.7,69.9,120.2L69.9,120.2z M79.2,130.8
	C79.2,130.8,79.1,130.8,79.2,130.8C79.1,130.7,79.2,130.8,79.2,130.8C79.2,130.8,79.2,130.8,79.2,130.8L79.2,130.8z M80,130.7
	c0,0-0.1-0.1-0.1-0.1c0,0,0,0,0.1,0C80.1,130.6,80.1,130.6,80,130.7C80.1,130.7,80.1,130.7,80,130.7L80,130.7z M81.4,135.8
	L81.4,135.8L81.4,135.8L81.4,135.8z M83.9,126.4C83.9,126.5,83.9,126.5,83.9,126.4c0,0.1-0.1,0.2-0.1,0.2c0,0,0,0.1,0,0.1
	c-0.1,0.5-0.3,0.9-0.4,1.4c-0.2,0.3-0.4,0.6-0.6,1c-0.1,0.1-0.2,0.2-0.3,0.3c-0.4,0.3-0.9,0.4-1.4,0.5c-0.6,0.1-1.3,0.2-1.9,0.1
	c-0.4,0-0.8-0.1-1.1-0.3c-0.3-0.2-0.7-0.4-1-0.6c-0.1-0.1-0.2-0.1-0.2-0.2c-0.4-0.7-0.7-1.4-0.9-2.2c-0.1-0.2-0.1-0.5-0.1-0.8
	c0-0.5-0.1-1.1-0.1-1.6c-0.1-0.8-0.1-1.5,0-2.3c0-0.5,0.1-1,0.2-1.4c0.1-0.3,0.1-0.6,0.2-0.9c0.1-0.2,0.1-0.4,0.2-0.5
	c0.2-0.4,0.5-0.7,0.8-1c0.1-0.1,0.2-0.2,0.3-0.3c0.2-0.2,0.4-0.4,0.7-0.5c0.1,0,0.3-0.1,0.4-0.1c0.3-0.1,0.7-0.1,1-0.1
	c0.5,0,1,0.1,1.5,0.2c0.5,0.1,0.9,0.4,1.3,0.7c0.1,0,0.1,0.1,0.1,0.2c0.5,0.7,0.8,1.5,1.1,2.3c0.2,0.7,0.3,1.3,0.4,2
	c0.1,0.3,0.1,0.5,0.1,0.8c0,0.8,0,1.6,0,2.4C83.9,125.9,83.9,126.2,83.9,126.4L83.9,126.4z M80.1,114.7c0,0,0.1,0,0.1,0
	c0,0,0.1,0.1,0.1,0.2c0,0-0.1,0-0.1,0.1C80.1,114.8,80.1,114.8,80.1,114.7L80.1,114.7z M81.2,115.5c0.1-0.1,0.1-0.2,0.1-0.2
	c0.1,0,0.2,0,0.4,0.1c-0.1,0.1-0.1,0.2-0.2,0.2C81.4,115.5,81.3,115.5,81.2,115.5z M83.3,119.3c0.3-0.1,0.4-0.1,0.4-0.1
	c0.1,0,0.1,0.1,0.1,0.1c0,0-0.1,0.1-0.1,0.1C83.7,119.4,83.6,119.4,83.3,119.3L83.3,119.3z M84.4,130.2
	C84.4,130.2,84.3,130.2,84.4,130.2c-0.1-0.1,0-0.1,0-0.1c0.1,0,0.1,0,0.1,0C84.5,130.2,84.4,130.2,84.4,130.2L84.4,130.2z
	 M93.4,117.6c0,0.4,0,0.7,0,1.1c0,0.8-0.1,1.5-0.1,2.3c0,0.6,0,1.3-0.1,1.9c0,0.2,0,0.4,0,0.6c0,0.5-0.1,0.9-0.1,1.4
	c0,0.2,0,0.4,0,0.6c-0.1,0.8-0.3,1.7-0.4,2.5c-0.1,0.6-0.5,1.1-1,1.5c-0.2,0.2-0.6,0.4-0.9,0.4c-0.7,0.1-1.4,0.2-2,0.1
	c-0.7,0-1.3-0.3-1.8-0.8c-0.2-0.3-0.5-0.6-0.7-0.9c-0.3-0.4-0.5-0.9-0.6-1.4c-0.1-0.6-0.2-1.2-0.4-1.8c-0.1-0.4,0.1-0.9,0-1.3
	c-0.1-0.2-0.1-0.4-0.1-0.7c-0.1-0.5,0.1-1,0-1.4c-0.2-1,0.4-2.1,0.1-3.1c-0.1-0.3,0.1-0.6,0.1-0.9c0.4,0,0.8-0.1,1.2-0.1
	c0.1,0,0.2,0,0.3,0c0,0.1,0.1,0.3,0.1,0.4c0.2,0.7,0.1,1.5,0,2.2c0.1,0.4,0.1,0.9,0.1,1.3c0,0,0,0,0,0.1c0,0.1,0,0.1,0.1,0.2
	c0,0.3,0,0.6-0.1,0.9c0,0.3,0,0.6,0.1,1c0.3,1.4,0.5,3.2,1.7,4c0.3,0,0.6-0.1,0.9-0.1c0.4-0.1,0.8-0.3,1.1-0.5
	c0.3-0.3,0.4-0.6,0.5-1.1c0-0.2,0.1-0.4,0.1-0.7c0-0.4,0-0.8,0-1.2c-0.1-0.7-0.1-1.5-0.2-2.2c0-0.4-0.1-0.8-0.1-1.2
	c0-0.2,0.1-0.4,0.1-0.6c0.1-0.6,0.1-1.1,0.2-1.7c0-0.2,0.1-0.5,0.1-0.7c0.6,0,1.3,0,1.9,0C93.4,117.4,93.4,117.5,93.4,117.6
	L93.4,117.6z M86.9,117c0-0.1,0.1-0.1,0.1-0.2c0.1,0.1,0.1,0.1,0.2,0.2c-0.1,0.1-0.1,0.1-0.2,0.2C87,117.1,86.9,117,86.9,117
	L86.9,117z M89.4,116.4C89.4,116.4,89.5,116.3,89.4,116.4c0.1,0,0.1,0,0.2,0.1c-0.1,0-0.1,0.1-0.1,0.1
	C89.5,116.5,89.5,116.4,89.4,116.4L89.4,116.4z M89.7,116.9c0.1,0,0.2-0.1,0.2-0.1c0,0,0.1,0,0.1,0.1c0,0,0,0.1,0,0.1s-0.1,0-0.1,0
	C89.9,117.1,89.8,117,89.7,116.9L89.7,116.9z M101.9,118.9c-0.7,0-0.3,0.1-1,0.1c-0.6,0-1.2,0.1-1.9,0.1c0,0-0.1,0-0.1,0
	c0,0,0,0,0,0.1c0,0.3,0,0.7,0.1,1c0,0.3,0,0.6,0.1,0.9c0,0.3,0,0.6,0.1,0.9c0,0.3,0,0.7,0.1,1c0,0.2,0,0.3,0,0.5c0,0.1,0,0.2,0,0.2
	c0,0.4,0,0.9,0.1,1.3c0,0.4,0,0.7,0,1c0,0.4,0,0.8,0.1,1.2c0.1,0.8,0.1,1.5,0.1,2.3c0,0.2,0,0.3-0.1,0.5c-0.1,0.1-0.2,0.1-0.3,0.1
	c-0.4,0-0.8,0-1.1,0c-0.2,0-0.4,0-0.5,0c-0.1-0.1-0.1-0.2-0.1-0.3c0-0.7,0-1.5,0-2.2c0-0.4,0-0.9,0-1.3c0-0.7,0-1.4,0-2.1
	s0-1.4,0-2.1c0-0.6,0-1.1-0.1-1.7c0-0.4-0.1-0.7-0.1-1c-0.1-0.1-0.2-0.1-0.4-0.1c-1,0-0.9,0-1.9,0c-0.1,0-0.1,0-0.2,0
	c0,0-0.1-0.1-0.1-0.1c-0.1-0.5-0.2-1-0.2-1.5c0,0,0-0.1,0-0.1c0,0,0.1,0,0.1,0c3.2-0.1,4.4-0.2,7.6-0.3c0,0,0.1,0,0.2,0
	c0.1,0.6,0.1,1.1,0.1,1.7C102.2,118.9,102,118.9,101.9,118.9L101.9,118.9z M112.2,130c-0.3,0.1-0.6,0-0.9,0c-0.3,0-0.6,0-0.9,0
	c0-0.1,0-0.1,0-0.2c0-0.3,0-0.6,0-0.9c0-0.8,0-1.6-0.1-2.4c0-0.2,0-0.4,0-0.5c0-0.4,0-0.7,0-1.1c0-0.2,0-0.5,0-0.7
	c0-0.1,0-0.2-0.1-0.3c-0.2,0-0.5,0-0.7,0c-0.2,0-0.3,0-0.5,0c-0.1,0-0.2,0-0.3,0c-0.6,0.1-1.1,0-1.7,0.1c-0.4,0-0.8,0-1.1,0
	c-0.1,0-0.2,0-0.3,0c-0.1,0.2,0,0.3,0,0.4v0.6c0,0.5,0,0.9,0,1.4c0,0.1,0,0.1,0,0.2c0,0.5,0,0.9,0.1,1.4s0.1,0.9,0.2,1.4
	c0,0.2,0.1,0.4,0.1,0.6c0,0,0,0.1,0,0.1c-0.6,0.1-1.1,0.1-1.7,0.1c0,0,0-0.1,0-0.1c-0.1-1.1-0.1-2.3-0.1-3.4c0-0.5,0-0.9,0-1.3
	c0-0.6-0.1-1.1-0.1-1.7c0-0.4,0-0.8,0-1.2c0-0.5-0.1-1-0.1-1.5c0-0.4-0.1-0.9-0.1-1.3c0-0.3,0-0.6-0.1-1c0-0.1,0-0.2,0-0.2
	c0-0.3,0-0.6,0-0.9c0,0,0-0.1,0-0.1c0.5,0,1,0,1.5-0.1c0,0.1,0.1,0.1,0.1,0.2c0.1,0.4,0.1,0.7,0.1,1c0,0.2,0.1,0.5,0.1,0.7
	c0,0.2,0.1,0.4,0.1,0.6c0,0.3,0.1,0.6,0.1,0.9c0,0.3,0.1,0.5,0.1,0.8c0,0.1,0,0.3,0.1,0.5c0.1,0.1,0.3,0.1,0.4,0.1
	c0.6,0,1.1,0,1.7,0.1c0.6,0,1.2,0,1.8,0c0.1,0,0.2,0,0.4,0c0-0.1,0-0.1,0-0.2c0-0.1,0-0.2,0-0.3c0-0.1,0-0.1,0-0.2
	c0-0.5-0.1-1-0.1-1.5c0-0.1,0-0.3,0-0.4c0-0.5,0-0.9-0.1-1.4c0-0.3,0-0.6,0-0.9c0-0.1,0-0.2,0-0.2c0.6-0.1,1.2,0,1.8,0
	c0,0.1,0,0.1,0,0.2c0,0.6,0.1,1.3,0.1,2c0,0.8,0.1,1.5,0.1,2.3c0,0.5,0.1,1,0.1,1.5c0,0.3,0,0.7,0.1,1c0,0.5,0.1,1,0.1,1.5
	c0,0,0,0.1,0,0.1c0,0.6,0,1.3,0.1,1.9c0,0.3,0,0.6,0.1,0.9c0,0.5,0.1,0.9,0.1,1.3C112.2,129.8,112.2,129.9,112.2,130L112.2,130z
	 M108.8,116.8C108.9,116.8,108.9,116.8,108.8,116.8c0.1,0,0.1,0,0.2,0c0,0,0,0,0,0C108.9,116.8,108.9,116.8,108.8,116.8z
	 M96.1,106.1L99,102l5.9-2l7.9-8.5l-9,6.5l-7.2,2.9L73,111.4l1.2-1.4l6.9-6.1l7.6-7l17.9-11.5l5.9-3.1l-0.2,0l1.3-0.5
	c0,0,0,0-0.1-0.1c0.1,0,0.1-0.1,0.2-0.1c0,0,0.1,0,0.1,0l0.4-0.2c-0.1,0-0.1,0-0.2-0.1c0.2,0,0.3,0,0.4,0c0,0,0,0,0,0h0
	c0-0.1,0-0.2,0-0.4c0.2,0,0.2,0.1,0.4,0.1c0.1-0.1,0.3-0.2,0.6-0.4c-0.1,0.2-0.2,0.3-0.2,0.4c0,0,0,0.1,0,0.1l1.1-0.4
	c0-0.1,0.1-0.1,0.1-0.1c0,0,0,0,0,0c0,0,0,0,0,0c0-0.1-0.1-0.1-0.1-0.2c0,0-0.1-0.1-0.1-0.1c0.1-0.1,0.1-0.2,0.2-0.2
	c0.1-0.1,0.1-0.1,0.1-0.2c-0.1-0.2-0.4,0-0.6-0.2c0.3-0.3,0.7-0.6,1.2-0.5c0-0.1,0-0.1,0-0.2l-2.8,0.6c0.1,0.1,0.1,0.3,0.2,0.4
	c0.2,0.2,0.1,0.3,0,0.5c-0.1,0.1,0,0.3,0,0.5c-0.1-0.1-0.3-0.1-0.3-0.2c0-0.2,0-0.4-0.1-0.6c-0.1-0.1,0-0.3,0.2-0.5l-2.8,0.6h0
	l-0.1,0l-0.3,0.1l0.9-1c0,0,0,0,0-0.1c0,0,0.1,0,0.1,0l1.1-1.1l2.1-2.5l1.3-1.2c0-0.2,0-0.4,0-0.5c0.2-0.1,0.4-0.2,0.4,0.1
	c0,0,0,0,0.1,0l0.3-0.3c-0.2-0.1-0.5-0.2-0.8-0.2c0-0.1-0.1-0.2-0.1-0.2c0,0,0,0,0,0c0,0,0,0,0,0c-0.1,0-0.2,0.1-0.3,0
	c-0.2-0.1-0.4-0.3-0.5-0.5c0.4,0,0.4,0,0.8,0.5c0,0,0,0,0,0c0,0,0,0,0,0c0.3,0.1,0.6,0,0.8-0.1c0.1,0.1,0.1,0.2,0.1,0.3
	c0.1,0,0.1,0,0.2,0.1l0.1-0.1c-0.1-0.1-0.1-0.1-0.1-0.2c0.1-0.1,0.2-0.1,0.4,0l0.2-0.2c-0.1,0-0.2-0.1-0.2-0.2
	c0.1-0.1,0.3-0.1,0.4,0l0.5-0.4c-0.2,0-0.5-0.1-0.6-0.4c0.4,0,0.8-0.1,1.1-0.1l0.2-0.2c-0.3,0.1-0.6,0-1-0.1c0-0.1,0-0.3,0-0.5
	c0.5,0.1,0.8,0.3,1.3,0.3l0.3-0.3c0-0.1,0-0.1-0.1-0.2c0.2-0.1,0.3-0.2,0.5-0.4c0,0,0,0,0.1,0.1l0.5-0.5c-0.1-0.1-0.1-0.2-0.2-0.4
	c-0.2,0.2-0.3,0.4-0.5,0.6c-0.1-0.1-0.3-0.1-0.4-0.2s-0.3-0.1-0.4-0.2c0-0.3,0.4-0.1,0.5-0.4c0-0.2,0.3-0.2,0.5-0.3s0.4,0,0.6,0
	c0.2,0,0.4,0,0.6,0c0,0,0,0,0,0.1l1.5-1.3l5,10.7l0.6,5.2l0.1,0.5c0.1,0,0.2-0.1,0.4-0.1c0-0.3-0.2-0.5,0.1-0.8c0.1,0,0.2,0,0.3,0
	c0,0,0,0,0,0c-0.1,0-0.2,0-0.3-0.1c0,0.1,0,0.2,0.1,0.3c0.2,0.1,0.2,0.3,0.1,0.5c0,0.1,0,0.2,0.1,0.3h1.4c0.1,0.1,0,0.2-0.1,0.2
	c-0.3,0.1-0.7,0.1-1,0.1c-0.3,0-0.5-0.2-0.9-0.1l2,6.2l2.7,7l-2,5.2l-7.6-7.2l0.1-0.2l0-0.1l-0.3-11.7c0,0-0.1,0-0.1,0l-0.1,0.8
	c0,0,0,0,0,0c0,0,0,0,0,0.1h0l-1.1,10.6l-10,6.5L96.1,106.1z M111.4,81.6C111.4,81.6,111.4,81.6,111.4,81.6
	C111.4,81.6,111.5,81.6,111.4,81.6C111.5,81.6,111.4,81.6,111.4,81.6C111.4,81.7,111.4,81.7,111.4,81.6z M111.8,81.9L111.8,81.9
	l0.2,0.4c0,0-0.1,0-0.1,0C111.9,82.1,111.9,82,111.8,81.9z M112.3,80.7c0.4-0.1,0.6,0.1,0.8,0.3C112.8,81,112.8,81,112.3,80.7z
	 M113,81.3C113.1,81.3,113,81.4,113,81.3c-0.1,0.1-0.2,0.1-0.2,0.1c-0.1,0-0.2-0.1-0.4-0.2c0.2,0,0.4,0,0.5,0
	C112.9,81.2,113,81.3,113,81.3z M113.3,82.1C113.3,82,113.3,82,113.3,82.1C113.3,82,113.3,82,113.3,82.1
	C113.4,82,113.4,82.1,113.3,82.1C113.3,82.1,113.3,82.1,113.3,82.1z M115.3,79.8C115.3,79.7,115.4,79.7,115.3,79.8
	c0.1,0,0.1,0,0.2,0.1c-0.1,0-0.1,0-0.1,0C115.4,79.8,115.3,79.8,115.3,79.8L115.3,79.8z M129.4,82.1c0,0,0-0.1,0.1-0.1
	c0,0,0.1,0,0.1,0C129.6,82.1,129.5,82.2,129.4,82.1C129.4,82.2,129.4,82.1,129.4,82.1z M131.9,81.1c0.1-0.1,0.3,0,0.5,0
	c-0.1,0.5-0.1,0.5,0.2,0.7c0,0,0,0.1,0,0.1c-0.2,0-0.4,0-0.6,0.1c-0.2,0.2,0.2,0.4,0,0.6c-0.2-0.1-0.5-0.1-0.6-0.2
	c-0.3-0.4-0.8-0.4-1.2-0.4c0,0-0.1-0.1-0.1-0.2c0.4-0.2,0.7-0.1,1,0c0.2,0,0.3-0.1,0.4-0.2c-0.1-0.1-0.2-0.2-0.4-0.4
	c0.1,0,0.1-0.1,0.1-0.1C131.4,81,131.6,81.2,131.9,81.1z M131.4,80.5C131.5,80.4,131.5,80.4,131.4,80.5c0.1,0,0.1,0,0.1,0
	C131.5,80.5,131.5,80.5,131.4,80.5C131.4,80.5,131.4,80.5,131.4,80.5L131.4,80.5z M131.6,80.1c0,0,0.1,0,0.1-0.1c0,0,0.1,0,0.1,0.1
	c0,0-0.1,0.1-0.1,0.1S131.7,80.1,131.6,80.1z M132.4,83.6c0,0,0-0.1,0-0.1c0-0.1,0.3-0.3,0.4-0.2c0.1,0,0.1,0.1,0.2,0.2
	c-0.1,0.1-0.2,0.2-0.3,0.2C132.6,83.7,132.5,83.7,132.4,83.6z M132.7,84.1c0,0.1-0.1,0.1-0.1,0.1c0,0-0.1,0-0.1,0c0,0,0-0.1,0-0.1
	C132.6,84.1,132.7,84.1,132.7,84.1z M132,84.1C132,84.1,132,84.1,132,84.1C131.9,84.1,131.9,84.1,132,84.1
	C131.9,84.1,131.9,84.1,132,84.1C131.9,84.1,131.9,84.1,132,84.1L132,84.1z M131.6,84.8c-0.2-0.1-0.3-0.1-0.4-0.1
	c-0.1-0.1-0.1-0.2-0.2-0.3c0,0,0.1-0.1,0.2-0.1c0.2,0,0.2,0.1,0.3,0.2C131.5,84.5,131.6,84.6,131.6,84.8L131.6,84.8z M130.5,79.7
	C130.5,79.7,130.5,79.7,130.5,79.7c-0.1,0.1-0.1,0.2-0.2,0.3c-0.1,0.1-0.3,0.1-0.4,0.1c-0.2-0.2-0.1-0.3,0-0.4
	c0.1-0.1,0.2-0.1,0.4-0.1C130.4,79.7,130.4,79.7,130.5,79.7C130.5,79.7,130.5,79.7,130.5,79.7c0.2,0,0.2-0.2,0.3-0.3
	c0.1-0.1,0.2-0.1,0.3,0C131.1,79.7,130.8,79.7,130.5,79.7L130.5,79.7z M125.7,126.7c-0.1,0.5-0.2,1-0.4,1.5
	c-0.3,0.8-0.8,1.4-1.5,1.9c-0.5,0.4-1.1,0.6-1.7,0.7c-0.3,0.1-0.6,0.1-0.9,0.1c-0.2,0-0.4,0-0.7-0.1c-0.4-0.1-0.8-0.2-1.1-0.3
	c-0.5-0.2-1-0.7-1.3-1.2c-0.2-0.3-0.4-0.6-0.5-1c0.4-0.4,0.8-0.8,1.3-1.1c0.1,0.1,0.2,0.2,0.3,0.3c0.3,0.5,0.7,1,1.1,1.3
	c0.1,0.1,0.2,0.2,0.4,0.2c0.3,0.1,0.6,0.2,0.9,0.2c0.5,0,0.9-0.1,1.3-0.3c0.1,0,0.2-0.1,0.3-0.2c0-0.1,0.1-0.1,0.2-0.1
	c0.4-0.2,0.7-0.5,0.9-0.9c0.2-0.3,0.2-0.6,0.2-0.9c-0.1-0.3-0.2-0.6-0.4-0.8c-0.2-0.2-0.4-0.4-0.7-0.5c-0.1-0.1-0.2-0.1-0.2-0.2
	c-0.3-0.1-0.6-0.4-0.9-0.5c-0.5-0.3-0.9-0.5-1.4-0.8c-0.6-0.3-1.2-0.6-1.8-0.9c-0.5-0.2-0.8-0.6-1-1c-0.2-0.3-0.3-0.6-0.5-0.9
	c-0.1-0.1-0.1-0.3-0.1-0.4c0-0.1,0-0.3,0.1-0.4c0.3-0.8,0.6-1.6,1.1-2.4c0.2-0.4,0.5-0.7,0.8-1c0.1-0.1,0.2-0.1,0.2-0.1
	c0.5-0.2,1.1-0.3,1.6-0.4c0.7-0.1,1.3,0.1,1.9,0.5c0.5,0.3,1,0.8,1.4,1.3c0.2,0.3,0.4,0.6,0.5,1c-0.3,0.2-0.6,0.4-0.9,0.6
	c-0.1,0-0.2,0.1-0.3,0.1c-0.1-0.1-0.2-0.3-0.3-0.4c-0.4-0.5-0.8-0.8-1.4-1c-0.1-0.1-0.3-0.1-0.5-0.1c-0.9-0.2-1.6,0.1-2.2,0.8
	c-0.3,0.3-0.4,0.8-0.4,1.2c0,0.2,0.1,0.4,0.2,0.6c0.2,0.4,0.5,0.6,0.8,0.8c0.4,0.2,0.7,0.4,1.1,0.6c0.6,0.3,1.3,0.5,2,0.8
	c0.5,0.2,0.9,0.4,1.3,0.7c0.2,0.2,0.5,0.4,0.6,0.6c0.1,0.2,0.3,0.4,0.4,0.6C125.7,125.6,125.7,126.1,125.7,126.7L125.7,126.7z
	 M134.6,125.2c-0.1,0.3-0.1,0.6-0.1,0.9c-0.1,0.8-0.4,1.6-0.8,2.4c-0.1,0.3-0.3,0.5-0.5,0.7c-0.3,0.3-0.6,0.7-0.9,1
	c-0.2,0.1-0.4,0.2-0.6,0.3c-0.1,0-0.2,0-0.3,0c-0.5,0-0.9,0-1.4-0.1c-0.2,0-0.5-0.1-0.7-0.2c-0.5-0.3-1-0.6-1.4-1.1
	c-0.3-0.4-0.6-0.8-0.9-1.2c-0.2-0.3-0.3-0.6-0.4-0.9c-0.2-0.8-0.4-1.6-0.5-2.4c-0.1-0.6-0.1-1.1-0.1-1.9c0-0.4,0-0.9,0.1-1.4
	c0-0.1,0.1-0.3,0.1-0.5c0.3-0.8,0.7-1.5,1.1-2.2c0.3-0.5,0.6-0.9,1.1-1.2c0.3-0.3,0.7-0.4,1.1-0.5c0.2,0,0.4-0.1,0.5-0.1
	c0.1,0,0.2,0,0.3,0c0.8,0.2,1.5,0.6,2,1.1c0.5,0.4,0.9,1,1.3,1.5c0.1,0.1,0.1,0.2,0.2,0.4c0.2,0.8,0.4,1.6,0.5,2.4
	c0,0.4,0,0.7,0.1,1.1c0,0.4,0.1,0.7,0.1,1C134.7,124.7,134.7,124.9,134.6,125.2L134.6,125.2z M132.5,81.2l-1.9-4.9l-2.7-6.7l1.9,2.2
	l7.5,9.2l4.1,6.1l5.8,4.2l-6.4,5.9l-5.7-7.5L132.5,81.2z M144.1,123.7c0,0.3,0,0.5,0,0.8c0,0.7-0.1,1.4-0.3,2.1
	c-0.1,0.5-0.3,1-0.5,1.5c-0.3,0.6-0.6,1.1-0.9,1.6c0,0.1-0.1,0.2-0.2,0.2c-0.1,0.1-0.3,0.2-0.5,0.3c-0.5,0.3-1.1,0.5-1.7,0.5
	c-0.5,0-0.9,0-1.4-0.1c-0.3-0.1-0.6-0.2-0.9-0.3c-0.2-0.1-0.3-0.2-0.4-0.4c-0.4-0.6-0.7-1.2-1-1.8c-0.1-0.2-0.2-0.5-0.2-0.7
	c-0.2-0.5-0.2-1.1-0.2-1.7c0-0.6,0-1.2,0-1.8c0-1.1,0-2.1,0-3.2c0-0.7,0-1.5,0-2.2c0-0.5,0-1.1,0-1.6c0-0.1,0-0.2,0.1-0.3h1.7
	c0,0.1,0,0.2,0,0.2c0,0.4,0,0.8,0,1.1c0,0.7,0,1.4,0,2c0,0.3,0,0.5,0,0.8c0,0.6,0,1.2,0,1.8c0,0.5,0,1,0,1.5c0,0.8,0,1.6,0,2.4
	c0,0.5,0.1,0.9,0.2,1.4c0,0.2,0.1,0.3,0.2,0.5c0,0.1,0.1,0.1,0.1,0.2c0.4,0.6,0.9,0.8,1.5,0.7c0.5-0.1,1-0.2,1.4-0.6
	c0.2-0.2,0.5-0.4,0.7-0.7c0.1-0.1,0.2-0.3,0.3-0.5c0.2-0.6,0.2-1.1,0.3-1.7c0-0.9,0-1.9,0-2.8c0-0.9,0-1.8-0.1-2.7
	c0-0.4,0-0.7,0-1.1c0-0.5,0-1.1,0-1.6c0-0.3,0-0.5,0-0.8c0.2-0.1,0.4,0,0.6-0.1s0.4,0,0.6,0c0.2,0,0.4,0,0.6,0c0,0.1,0,0.2,0,0.4
	c0,0.5,0,1.1,0,1.6c0,0.5,0,1,0,1.4c0,0.9,0,1.8,0,2.6C144.1,122.9,144.1,123.3,144.1,123.7L144.1,123.7z M154.3,130.6
	c-0.3,0-0.5,0-0.8,0c-0.7,0-1.5,0-2.2,0c-0.3,0,0.1,0-0.2,0c0-0.1-0.1-0.1-0.1-0.2c-0.3-1.2-0.7-2.5-1.1-3.7c-0.3-1-0.6-1.9-1-2.9
	c-0.2-0.6-0.5-1.3-0.7-1.9c-0.1-0.4-0.2-1.6-0.4-1.8c0,0.1,0,0.1,0,0.2c0,0.3,0,0.6,0,0.9v0.2c0,0.5,0,1.1,0,1.6c0,0.4,0,0.8,0,1.2
	c0,0.3,0,0.6,0,1c0,0.4,0,0.8,0,1.2c0,0.2,0,0.5,0,0.8c0,0.3,0,0.7,0.1,1c0,0.2,0,0.4,0,0.6c0,0.5,0,1.1,0,1.6c0,0.1,0,0.1,0,0.2
	c-0.1,0-0.1,0-0.2,0c-0.7,0-1.4,0-2.1,0c-0.1-0.1-0.1-0.2-0.1-0.3c0-0.3,0-0.6,0-1c0-0.8,0-1.6,0-2.4c0-0.6,0-1.3,0-1.9
	c0-0.4,0-0.8,0-1.2c0-1,0-2,0-2.9c0-0.5,0-1,0-1.5c0-0.6,0-1.3,0-2c0-0.3,0-0.5,0-0.8c0.1,0,0.1,0,0.2,0c0.7,0,1.5,0,2.2,0
	c0.1,0,0.3,0,0.4,0c0,0,0,0,0,0c0,0-0.1,0,0,0v0c0,0,0.1,0,0,0c0,0,0,0,0,0c0,0.1,0.1,0.2,0.1,0.3c0.4,1.2,0.9,2.4,1.3,3.6
	c0.3,0.9,0.6,1.7,0.9,2.6c0.4,1.2,1.5,4.8,1.5,4.8s-0.2-2-0.2-3c0-0.9-0.1-1.7-0.1-2.5c0-0.6-0.1-1.1-0.1-1.7c0-0.5,0-1-0.1-1.6
	c0-0.5-0.1-0.9-0.1-1.4c0-0.4,0-0.8-0.1-1.1c0.1-0.1,0.2-0.1,0.4-0.1h0.5c0.4,0,0.7,0,1.1,0c0.1,0,0.3,0,0.4,0c0,0,0,0.1,0,0.1
	c0,0.9,0,1.8,0,2.6c0,0.7,0,1.5,0.1,2.2c0,0.6,0,1.1,0,1.7c0,0.7,0,1.4,0.1,2.1c0,0.5,0,0.9,0,1.4c0,0.5,0,0.9,0,1.3
	c0,0.3,0,0.6,0,0.9c0,0.5,0,0.9,0.1,1.4C154.4,130.5,154.4,130.6,154.3,130.6L154.3,130.6z M163.7,125.4c-0.1,1-0.5,1.9-1,2.7
	c-0.5,0.5-1.1,1-1.9,1.5c-1.3,0.7-2.9,1.1-4.6,1.1c0-0.5,0-0.9,0-1.4c0-2.1-0.2-4.3-0.2-6.4c0-1.7,0.3-3.5,0.1-5.1c0,0,0,0,0,0
	c0-0.1,0-0.3,0-0.4c0-0.1,0-0.1,0-0.2c0,0,0-0.1,0-0.2c0,0,0,0,0,0c0.2-0.1,0.3-0.2,0.5-0.4c0.1,0,0.2-0.1,0.3-0.1
	c0.8,0.1,1.7,0.3,2.5,0.5c1.4,0.5,2.2,1.1,2.8,2c0.6,0.9,0.9,1.9,1.1,2.9c0.2,0.9,0.4,1.9,0.4,2.9
	C163.7,125,163.7,125.2,163.7,125.4C163.7,125.4,163.7,125.4,163.7,125.4L163.7,125.4z M164.5,104.6c-4.2,1.1-4.2,1.1-4.2,1.1
	l-3.9,0.6l9.9-12.6l-9.4,7.6l3.9-8.7l-5.2-5.6l8.8,3l15.7,9.4l-8.6,0.9c0,0,9.6,9,8.9,9l-12.6-5.5
	C167.8,103.8,167.8,103.8,164.5,104.6L164.5,104.6z M176.6,122.3c-0.6,1-1.5,1.8-2.9,2.2c-0.6,0.2-1.2,0.3-1.8,0.4
	c-0.2,0-0.4,0.1-0.5,0.2c0,0.1,0,0.2,0,0.3c0,1.3,0,2.7,0.1,4c0,0.3,0,0.5,0.1,0.8c0,0.2,0,0.3,0,0.5c-0.2,0.1-0.5,0-0.7,0
	c-0.2,0-0.5,0-0.7,0s-0.5,0-0.8,0c-0.1-0.2,0-0.4,0-0.6c0-1,0-2,0-3c0-1,0-2,0-3.1c0-0.9,0-1.7,0-2.5c0-0.1,0-0.2,0-0.2
	c0-1.1,0-2.2,0-3.2c0-0.3,0-0.7,0-1c0-0.1,0-0.2,0.1-0.3c0.2,0,0.4,0,0.6,0c0.5,0,1,0,1.5,0c0.6,0,1.2,0.1,1.8,0.2
	c0.8,0.2,1.5,0.5,2.1,1c0.2,0.1,0.3,0.3,0.4,0.4c0.4,0.6,0.6,1.2,0.8,1.9c0.1,0.3,0.1,0.6,0.2,0.9c0,0,0,0,0,0
	C176.9,121.5,176.9,121.9,176.6,122.3L176.6,122.3z M186.1,130.4c-0.8,0-1.6,0-2.4,0c-0.5-0.6-0.9-1.3-1.4-1.9
	c-0.5-0.7-0.9-1.4-1.4-2c-0.2-0.3-0.5-0.7-0.8-1c-0.1-0.1-0.2-0.2-0.5-0.2c0,0.3,0,0.7,0,1c0,0.4,0,0.7,0,1c0,0.3,0,0.7,0,1
	c0,0.4,0,0.7,0,1c0,0.3,0.1,0.7,0,1c-0.4,0.1-1.4,0.1-1.8,0c0-0.3,0-0.6,0-1c0-0.5,0-1.1,0-1.6c0-0.4,0-0.7,0-1.1c0-0.4,0-0.9,0-1.3
	c0-0.4,0-0.8,0-1.2c0-0.5,0-1.1-0.1-1.6c0-0.5,0-0.9,0-1.4c0-0.4,0-0.8,0-1.2c0-0.2,0-0.4,0-0.5c0-0.5,0-1,0-1.5c0-0.4,0-0.8,0-1.2
	c0-0.1,0-0.2,0.2-0.2c0.2,0,0.3,0,0.5,0c0,0,0.1,0,0.1,0c1-0.2,2.4,0,3.4,0.1c0.9,0.1,1.5,0.7,2,1.4c0.4,0.6,1,1.6,0.8,2.4
	c-0.1,0.3-0.3,0.6-0.5,0.9c-0.1,0.3-0.2,0.7-0.5,0.9c-0.1,0.2-0.3,0.3-0.5,0.5c0,0.1-0.1,0.1-0.1,0.2c0,0-0.1,0.1-0.1,0.1
	c-0.2,0.3-0.7,0.6-1,0.7c-0.3,0.1-0.6,0.2-0.8,0.4c0,0,0,0-0.1,0c0.2,0.3,0.5,0.5,0.7,0.8c0.6,0.7,1.2,1.4,1.8,2.1
	c0.5,0.6,1,1.1,1.4,1.7c0.3,0.4,0.6,0.8,0.9,1.1c0.1,0.1,0.2,0.2,0.3,0.4C186.2,130.4,186.1,130.4,186.1,130.4L186.1,130.4z
	 M195.1,125c-0.2,0.9-0.4,1.7-0.7,2.5c-0.1,0.3-0.2,0.5-0.4,0.8c0,0-0.1,0.1-0.1,0.1c-0.2,0.3-0.3,0.5-0.6,0.7
	c-0.2,0.3-0.5,0.5-0.8,0.7c-0.6,0.4-1.2,0.6-1.8,0.6c-0.6,0.1-1.2-0.1-1.8-0.5c-0.3-0.2-0.5-0.4-0.8-0.7c-0.3-0.2-0.5-0.5-0.7-0.8
	c0,0-0.1-0.1-0.1-0.1c-0.2-0.2-0.3-0.5-0.4-0.8c-0.3-0.8-0.6-1.7-0.8-2.5c-0.2-0.9-0.3-1.8-0.3-2.7c0-0.3,0-0.6,0.1-0.9
	c0.1-0.5,0.2-1,0.4-1.5c0.1-0.5,0.3-1,0.5-1.5c0.1-0.3,0.3-0.5,0.5-0.7c0.6-0.6,1.4-0.9,2.3-1.1c0,0,0.1,0,0.1,0
	c0.2-0.1,0.5-0.1,0.8-0.1c0.3,0,0.6,0,0.9,0.1c0,0,0.1,0,0.1,0c0.8,0.2,1.6,0.5,2.2,1c0.2,0.2,0.4,0.4,0.5,0.7
	c0.2,0.5,0.4,1,0.5,1.5c0.1,0.2,0.1,0.4,0.2,0.6c0,0,0,0.1,0,0.1c0,0,0,0,0,0.1c0,0.1,0,0.2,0,0.3c0.1,0.7,0.1,1.3,0.4,2
	C195.3,123.8,195.3,124.4,195.1,125L195.1,125z M203.4,127.2c0,0.3-0.1,0.7-0.2,1c-0.2,0.7-0.4,1.2-0.9,1.7
	c-0.4,0.4-0.9,0.5-1.6,0.7c-0.6,0.1-1.2,0.1-2,0.1c-0.4,0-0.7,0-1.1,0c-0.1-0.1-0.3-0.3-0.4-0.5c-0.4-0.6-0.5-1.4-0.6-2.1
	c-0.1-0.7-0.3-1.5-0.2-2.2c0.2-1.6,0.1-3.1,0.1-4.7c0-0.4-0.1-0.9-0.1-1.3c0-0.5,0-1,0.1-1.5c0-0.5,0-1,0.1-1.4c0.5,0,1,0,1.5-0.1
	c0,0,0,0,0,0.1c0.3,0,0.5,0.1,0.5,0.5c-0.1,1.9-0.1,3.9-0.1,5.8c0,0.6,0,1.2,0,1.8c0,0.2,0,0.5,0,0.7c0.1,0.6,0.3,1.1,0.3,1.7
	c0,0.2,0,0.4,0.1,0.6c0.1,0.2,0.2,0.4,0.3,0.5c0,0,0,0.1,0,0.1c0.1,0.2,0.3,0.3,0.5,0.4c0.7,0.3,1.5,0,1.8-0.6
	c0.2-0.5,0.3-1.1,0.5-1.6c0.1-0.2,0.1-0.3,0.2-0.5c0-1,0-2-0.1-3c0-1.1-0.1-2.2-0.1-3.4c-0.1-0.9-0.1-1.9-0.2-2.7
	c0-0.2,0-0.3,0.1-0.4c0-0.1,0-0.2,0-0.2c0.5,0,1,0.1,1.5,0.1c0,1.8,0.2,3.5,0.2,5.3c0,1.1,0,2.2,0,3.3
	C203.5,126,203.5,126.6,203.4,127.2L203.4,127.2z M205.1,107.4C205.1,107.5,205.1,107.4,205.1,107.4
	C205.1,107.4,205.2,107.4,205.1,107.4c0-0.1,0.1-0.1,0.1-0.1c0,0,0,0,0,0c0,0,0.1-0.1,0.1-0.1c0,0,0,0,0.1,0c0,0,0,0.1,0,0.1
	c0,0-0.1,0-0.1,0L205.1,107.4C205.2,107.4,205.2,107.4,205.1,107.4C205.2,107.4,205.2,107.4,205.1,107.4z M212.4,124.5
	c0,0.5-0.2,1-0.4,1.5c-0.3,0.9-0.6,1.7-1.1,2.5c-0.4,0.7-1,1.2-1.8,1.4c-1,0.3-1.9,0.6-2.9,0.7c-0.1,0-0.2,0-0.4,0
	c-0.1-0.2-0.1-0.5-0.1-0.7c-0.1-1.3-0.1-2.6-0.2-3.9c0-0.2,0-0.3,0-0.5c0-0.9-0.1-1.8-0.1-2.6c0-0.8-0.1-1.5-0.1-2.2
	c0-0.7-0.1-1.4-0.1-2.1c0-0.6,0-1.1,0-1.7c0,0,0-0.1,0-0.2c0.1,0,0.1,0,0.2,0c0.5,0,1,0,1.5-0.1c0.1,0,0.2,0,0.3,0
	c0.8-0.1,1.5,0,2.2,0.2c0.3,0.1,0.6,0.2,0.9,0.2c0.3,0.1,0.6,0.3,0.8,0.5c0.4,0.5,0.7,1,0.9,1.6c0.1,0.3,0.2,0.5,0.2,0.8
	c0.1,0.5,0.1,0.9,0.1,1.4c0,0.6,0.1,1.3,0.1,2C212.5,123.8,212.5,124.1,212.4,124.5L212.4,124.5z M238.3,122.3
	C238.3,122.3,238.2,122.3,238.3,122.3C238.2,122.3,238.2,122.3,238.3,122.3C238.3,122.3,238.3,122.2,238.3,122.3
	C238.3,122.3,238.3,122.3,238.3,122.3L238.3,122.3z M241.2,124.1C241.2,124.1,241.2,124.1,241.2,124.1
	C241.3,124.1,241.3,124.1,241.2,124.1C241.3,124.1,241.3,124.1,241.2,124.1C241.3,124.1,241.3,124.1,241.2,124.1z"/>
<path d="M141.5,64.8c0,0-0.1,0.1-0.1,0.2c0,0,0.1,0,0.1,0.1c0.1,0,0.1,0,0.2,0c0.1,0,0.3,0,0.2-0.2c0-0.1-0.2-0.1-0.3-0.1
	C141.7,64.7,141.6,64.8,141.5,64.8L141.5,64.8z"/>
<path d="M117.5,80.1C117.5,80.1,117.5,80.1,117.5,80.1c-0.1,0-0.1,0-0.1,0C117.4,80.1,117.5,80.1,117.5,80.1
	C117.5,80.1,117.5,80.1,117.5,80.1z"/>
<path d="M114.5,81.7l0.4-0.1c-0.1,0-0.2,0-0.2,0v0c0,0,0,0,0,0C114.6,81.6,114.6,81.7,114.5,81.7z"/>
<path d="M118.5,79.4C118.5,79.4,118.5,79.4,118.5,79.4L118.5,79.4C118.5,79.4,118.5,79.4,118.5,79.4z"/>
<path d="M119.5,79.6c0.1,0,0.3,0,0.4,0c0,0,0,0,0,0l0-0.1l0.1-0.3c-0.2,0-0.4,0-0.6,0c-0.4-0.1-0.8,0-1.1,0.3
	C118.8,79.6,119.1,79.7,119.5,79.6L119.5,79.6z"/>
<path d="M120.1,78.2c-0.5-0.1-0.6,0.1-0.5,0.7c0.2,0,0.5,0,0.7,0l0.3-0.7C120.4,78.2,120.3,78.2,120.1,78.2L120.1,78.2z"/>
<path d="M118.3,79.6c0,0,0.1,0.1,0.1,0.1c0,0,0.1-0.1,0.1-0.1c0,0,0-0.1,0-0.1c0,0-0.1,0-0.1,0C118.3,79.5,118.3,79.5,118.3,79.6z"
	/>
<path d="M181.7,122.2C181.7,122.2,181.8,122.1,181.7,122.2c0.4-0.2,0.6-0.5,0.8-0.8c0.1-0.1,0.2-0.3,0.2-0.5c0-0.2,0.1-0.5,0.1-0.7
	c0-0.1,0-0.3,0-0.4c-0.1-0.3-0.2-0.6-0.4-0.9c0-0.1-0.1-0.1-0.1-0.2c-0.1-0.1-0.3-0.2-0.4-0.2c-0.3,0-0.5-0.1-0.8-0.1
	c-0.1,0-0.3,0-0.4,0c-0.2,0-0.5,0-0.8,0.1c0,0.1,0,0.1,0,0.2c0,0.1,0,0.3,0,0.4c0,0.5,0,1-0.1,1.6c0,0.5,0,0.9-0.1,1.4
	c0,0,0,0.1,0,0.1c0.6,0,1.1,0.1,1.7,0.1C181.4,122.2,181.6,122.2,181.7,122.2L181.7,122.2z"/>
<path d="M82,120.7c-0.1-0.5-0.4-1-0.7-1.5c-0.4-0.7-0.9-1.1-1.5-1.1c-0.4,0-0.9,0.3-1.2,0.8c-0.1,0-0.1,0.1-0.1,0.2
	c-0.9,1.2-1.4,2.8-1.1,4.2c0,0,0,0.1,0,0.1v0.2c0,0.3,0,0.5,0,0.8c0,0.3-0.1,0.7-0.1,1c0.1,0.2,0.1,0.4,0.3,0.5
	c0.4,1.9,1.2,3.2,2.2,3.2c1.3,0,2.4-2.5,2.4-5.5c0-0.4,0-0.7,0-1C82.2,121.9,82.1,121.3,82,120.7z"/>
<path d="M117,69.2L117,69.2L117,69.2L117,69.2z"/>
<path d="M122.1,74.4c-0.2,0.1-0.4,0.1-0.6,0.1l-0.1,0.1c0.2,0.1,0.4,0.1,0.5,0.2L122.1,74.4z"/>
<path d="M116.8,80.8l0.2-0.1c-0.1,0-0.1-0.1-0.2-0.1c0,0,0,0,0,0v0c0,0,0,0,0,0C116.8,80.8,116.8,80.8,116.8,80.8L116.8,80.8z"/>
<path d="M118.7,68.3c0.1,0.1,0.2,0.1,0.2,0.1c0.2-0.2,0.4-0.1,0.7-0.1c-0.1,0-0.3-0.1-0.4-0.1s-0.3,0-0.4-0.2c0,0,0,0,0,0
	c0,0,0,0,0,0C118.7,68.1,118.6,68.2,118.7,68.3z"/>
<path d="M115.6,71.1c0.1,0,0.3,0,0.3-0.2c-0.2-0.2-0.4-0.2-0.6,0c-0.4-0.1-0.4,0.2-0.6,0.4c-0.2,0.2-0.2,0.4-0.1,0.7
	c0,0.1,0.1,0.1,0.2,0.1c0,0,0,0,0,0c0-0.2,0.1-0.4,0.3-0.4c0,0,0,0,0,0c0,0,0,0,0,0C115.1,71.4,115.3,71.2,115.6,71.1L115.6,71.1z"
	/>
<path d="M115.8,71.6c0,0,0.1,0,0.1,0c0,0,0,0,0,0C115.9,71.6,115.9,71.6,115.8,71.6C115.8,71.6,115.8,71.6,115.8,71.6z"/>
<path d="M118.7,79.9c-0.2,0.2-0.4,0.3-0.6,0.5l1-0.4C119,79.9,118.8,79.9,118.7,79.9L118.7,79.9z"/>
<path d="M133.3,121.9c-0.1-0.6-0.3-1.1-0.5-1.7c-0.1-0.2-0.2-0.4-0.4-0.5c-0.2-0.2-0.4-0.5-0.7-0.7c-0.1-0.1-0.3-0.2-0.4-0.2
	c-0.1,0-0.2,0-0.2,0c-0.3,0-0.6,0-1,0.1c-0.2,0-0.4,0.1-0.5,0.2c-0.4,0.2-0.7,0.5-1,0.8c-0.2,0.3-0.4,0.6-0.6,0.9
	c-0.1,0.2-0.2,0.4-0.3,0.6c-0.1,0.6-0.2,1.1-0.3,1.7c0,0.4-0.1,0.8-0.1,1.3c0,0.3,0,0.6,0.1,1c0,0.1,0,0.2,0.1,0.3
	c0.2,0.5,0.5,1.1,0.8,1.6c0.2,0.3,0.5,0.6,0.8,0.9c0.2,0.2,0.5,0.3,0.8,0.4c0.1,0,0.3,0,0.4,0.1c0.1,0,0.1,0,0.2,0
	c0.5-0.2,1-0.4,1.5-0.8c0.4-0.3,0.6-0.7,0.9-1.1c0-0.1,0.1-0.2,0.1-0.3c0.2-0.6,0.3-1.1,0.4-1.7c0-0.3,0-0.5,0.1-0.8
	c0-0.2,0-0.5,0.1-0.7c0-0.2,0-0.4,0-0.5C133.4,122.3,133.3,122.1,133.3,121.9L133.3,121.9z"/>
<path d="M161.1,123.1c-0.1-0.4-0.2-0.8-0.3-1.1c-0.5-1.3-1-2.9-2.5-3.6c0,0.7,0,1.4,0,2c0,0.6-0.1,1.2-0.2,1.8c0,0.2,0,0.4,0,0.6
	c0,2.2,0.2,4.4,0.2,6.6l0.1-0.1c0,0,0,0,0.1,0c0.2,0.1,0.5,0,0.6-0.1c0,0,0,0,0,0c1-0.3,1.4-1.3,1.6-2.1c0.4-1.2,0.5-2.5,0.3-3.7
	C161.1,123.2,161.1,123.2,161.1,123.1L161.1,123.1z"/>
<path d="M174.2,118.9C174.2,118.9,174.2,118.8,174.2,118.9c-0.7-0.6-1.6-0.8-2.5-0.8c-0.2,0.1-0.4,0.1-0.6,0.1
	c-0.2,1.7-0.1,3.5,0,5.2c0.4,0,0.7-0.1,1-0.1c0.2-0.1,0.5-0.1,0.8-0.2c0,0,0.1,0,0.1-0.1c1-0.5,1.4-1.6,1.5-2.7
	c0-0.4-0.2-0.9-0.3-1.3C174.3,119,174.2,119,174.2,118.9L174.2,118.9z"/>
<path d="M120.6,78l0.6-1.4c-0.1,0-0.3-0.1-0.4,0.1c-0.1,0.1-0.1,0.2-0.2,0.4c-0.1,0-0.3-0.1-0.3-0.2c0,0-0.1-0.1-0.1-0.1l-0.2,0.4h0
	c0.1,0.2-0.1,0.2-0.2,0.2l0,0.1c0,0.1,0,0.1-0.1,0.2c0,0,0,0,0,0l-0.1,0.3C119.9,77.9,120.2,78,120.6,78L120.6,78z"/>
<path d="M122.6,73l0.2-0.5c0,0,0,0,0,0c0,0,0-0.1,0.1-0.1l0.3-0.8c0,0,0-0.1,0-0.1l-0.9,1.6C122.4,73,122.5,73,122.6,73L122.6,73z"
	/>
<path d="M121.3,76.3l0.1-0.2c-0.1,0-0.1-0.1-0.2-0.1c0.1,0,0.2,0,0.3,0l0.1-0.3c0,0-0.1,0-0.1,0c0,0-0.2,0-0.2-0.1
	c0,0,0.1-0.2,0.1-0.2c0.1,0,0.2,0,0.2,0l0.1-0.3c-0.2,0-0.3,0-0.5,0.1c0,0-0.1-0.1-0.1-0.1l-0.3,0.6c0.2,0.2,0.2,0.3,0,0.7
	C121,76.3,121.1,76.3,121.3,76.3L121.3,76.3z"/>
<path d="M121.9,73.7c0.1,0.1,0.2,0.1,0.4,0.1l0.1-0.3c-0.1,0-0.2,0-0.4-0.1L121.9,73.7z"/>
<path d="M124.5,84.2C124.5,84.2,124.5,84.2,124.5,84.2l0.1-0.6L124.5,84.2z"/>
</svg>
